M48
; DRILL file {KiCad 8.0.4} date 2024-09-09T09:43:25+1000
; FORMAT={-:-/ absolute / metric / decimal}
; #@! TF.CreationDate,2024-09-09T09:43:25+10:00
; #@! TF.GenerationSoftware,Kicad,Pcbnew,8.0.4
; #@! TF.FileFunction,Plated,1,2,PTH
FMAT,2
METRIC
; #@! TA.AperFunction,Plated,PTH,ViaDrill
T1C0.400
; #@! TA.AperFunction,Plated,PTH,ComponentDrill
T2C0.850
%
G90
G05
T1
X-30.0Y-9.05
X-30.0Y-19.2
X-30.0Y-29.35
X-30.0Y-39.5
X-30.0Y-49.7
X-30.0Y-59.8
X-30.0Y-70.0
X-22.4Y-10.25
X-22.4Y-20.65
X-22.4Y-30.6
X-22.4Y-40.75
X-22.4Y-50.9
X-22.4Y-61.05
X-19.05Y-70.0
X-17.75Y-19.2
X-15.7Y-10.2
X-15.7Y-30.55
X-15.7Y-40.7
X-15.7Y-50.9
X-15.7Y-61.05
X-9.7Y-10.25
X-9.7Y-20.25
X-9.7Y-30.55
X-9.7Y-40.7
X-9.7Y-50.9
X-9.7Y-61.1
X-9.7Y-71.2
X-5.1Y-9.0
X-3.0Y-20.2
X-3.0Y-30.55
X-3.0Y-40.7
X-3.0Y-50.85
X-3.0Y-61.05
X-3.0Y-71.25
X3.0Y-10.25
X3.0Y-20.25
X3.0Y-30.55
X5.03Y-39.52
X6.35Y-59.84
X6.35Y-70.0
X6.45Y-49.68
X7.62Y-29.36
X9.7Y-10.2
X9.7Y-20.25
X15.6Y-20.25
X15.7Y-10.15
X15.7Y-30.6
X15.7Y-40.7
X17.75Y-49.7
X17.75Y-49.7
X19.0Y-70.0
X20.35Y-59.8
X22.4Y-10.2
X22.4Y-20.25
X22.4Y-40.7
X22.4Y-50.9
X30.0Y-9.05
X30.0Y-19.2
X30.0Y-29.35
X30.0Y-39.5
X30.0Y-49.7
X30.0Y-59.8
X30.0Y-70.0
T2
X-25.4Y-2.11
X-20.32Y-2.11
X-17.78Y-2.11
X-12.7Y-2.11
X-7.62Y-2.11
X-5.08Y-2.11
X0.0Y-2.11
X5.08Y-2.11
X7.62Y-2.11
X12.7Y-2.11
X17.78Y-2.11
X20.32Y-2.11
X25.4Y-2.11
M30
