%TF.GenerationSoftware,KiCad,Pcbnew,8.0.4*%
%TF.CreationDate,2024-09-09T09:43:21+10:00*%
%TF.ProjectId,ti45_keyboard,74693435-5f6b-4657-9962-6f6172642e6b,rev?*%
%TF.SameCoordinates,Original*%
%TF.FileFunction,Legend,Bot*%
%TF.FilePolarity,Positive*%
%FSLAX46Y46*%
G04 Gerber Fmt 4.6, Leading zero omitted, Abs format (unit mm)*
G04 Created by KiCad (PCBNEW 8.0.4) date 2024-09-09 09:43:21*
%MOMM*%
%LPD*%
G01*
G04 APERTURE LIST*
%ADD10C,0.150000*%
%ADD11C,0.200000*%
%ADD12C,0.000000*%
G04 APERTURE END LIST*
D10*
X-10000000Y-33000000D02*
X10000000Y-33000000D01*
X10000000Y-48000000D01*
X-10000000Y-48000000D01*
X-10000000Y-33000000D01*
X-9000000Y-43000000D02*
X9000000Y-43000000D01*
X9000000Y-47000000D01*
X-9000000Y-47000000D01*
X-9000000Y-43000000D01*
G36*
X-9000000Y-43000000D02*
G01*
X9000000Y-43000000D01*
X9000000Y-47000000D01*
X-9000000Y-47000000D01*
X-9000000Y-43000000D01*
G37*
X17946666Y-4454819D02*
X18279999Y-3978628D01*
X18518094Y-4454819D02*
X18518094Y-3454819D01*
X18518094Y-3454819D02*
X18137142Y-3454819D01*
X18137142Y-3454819D02*
X18041904Y-3502438D01*
X18041904Y-3502438D02*
X17994285Y-3550057D01*
X17994285Y-3550057D02*
X17946666Y-3645295D01*
X17946666Y-3645295D02*
X17946666Y-3788152D01*
X17946666Y-3788152D02*
X17994285Y-3883390D01*
X17994285Y-3883390D02*
X18041904Y-3931009D01*
X18041904Y-3931009D02*
X18137142Y-3978628D01*
X18137142Y-3978628D02*
X18518094Y-3978628D01*
X17041904Y-3454819D02*
X17518094Y-3454819D01*
X17518094Y-3454819D02*
X17565713Y-3931009D01*
X17565713Y-3931009D02*
X17518094Y-3883390D01*
X17518094Y-3883390D02*
X17422856Y-3835771D01*
X17422856Y-3835771D02*
X17184761Y-3835771D01*
X17184761Y-3835771D02*
X17089523Y-3883390D01*
X17089523Y-3883390D02*
X17041904Y-3931009D01*
X17041904Y-3931009D02*
X16994285Y-4026247D01*
X16994285Y-4026247D02*
X16994285Y-4264342D01*
X16994285Y-4264342D02*
X17041904Y-4359580D01*
X17041904Y-4359580D02*
X17089523Y-4407200D01*
X17089523Y-4407200D02*
X17184761Y-4454819D01*
X17184761Y-4454819D02*
X17422856Y-4454819D01*
X17422856Y-4454819D02*
X17518094Y-4407200D01*
X17518094Y-4407200D02*
X17565713Y-4359580D01*
X-4933333Y-4454819D02*
X-4600000Y-3978628D01*
X-4361905Y-4454819D02*
X-4361905Y-3454819D01*
X-4361905Y-3454819D02*
X-4742857Y-3454819D01*
X-4742857Y-3454819D02*
X-4838095Y-3502438D01*
X-4838095Y-3502438D02*
X-4885714Y-3550057D01*
X-4885714Y-3550057D02*
X-4933333Y-3645295D01*
X-4933333Y-3645295D02*
X-4933333Y-3788152D01*
X-4933333Y-3788152D02*
X-4885714Y-3883390D01*
X-4885714Y-3883390D02*
X-4838095Y-3931009D01*
X-4838095Y-3931009D02*
X-4742857Y-3978628D01*
X-4742857Y-3978628D02*
X-4361905Y-3978628D01*
X-5885714Y-4454819D02*
X-5314286Y-4454819D01*
X-5600000Y-4454819D02*
X-5600000Y-3454819D01*
X-5600000Y-3454819D02*
X-5504762Y-3597676D01*
X-5504762Y-3597676D02*
X-5409524Y-3692914D01*
X-5409524Y-3692914D02*
X-5314286Y-3740533D01*
X-12533333Y-4359580D02*
X-12485714Y-4407200D01*
X-12485714Y-4407200D02*
X-12342857Y-4454819D01*
X-12342857Y-4454819D02*
X-12247619Y-4454819D01*
X-12247619Y-4454819D02*
X-12104762Y-4407200D01*
X-12104762Y-4407200D02*
X-12009524Y-4311961D01*
X-12009524Y-4311961D02*
X-11961905Y-4216723D01*
X-11961905Y-4216723D02*
X-11914286Y-4026247D01*
X-11914286Y-4026247D02*
X-11914286Y-3883390D01*
X-11914286Y-3883390D02*
X-11961905Y-3692914D01*
X-11961905Y-3692914D02*
X-12009524Y-3597676D01*
X-12009524Y-3597676D02*
X-12104762Y-3502438D01*
X-12104762Y-3502438D02*
X-12247619Y-3454819D01*
X-12247619Y-3454819D02*
X-12342857Y-3454819D01*
X-12342857Y-3454819D02*
X-12485714Y-3502438D01*
X-12485714Y-3502438D02*
X-12533333Y-3550057D01*
X-12914286Y-3550057D02*
X-12961905Y-3502438D01*
X-12961905Y-3502438D02*
X-13057143Y-3454819D01*
X-13057143Y-3454819D02*
X-13295238Y-3454819D01*
X-13295238Y-3454819D02*
X-13390476Y-3502438D01*
X-13390476Y-3502438D02*
X-13438095Y-3550057D01*
X-13438095Y-3550057D02*
X-13485714Y-3645295D01*
X-13485714Y-3645295D02*
X-13485714Y-3740533D01*
X-13485714Y-3740533D02*
X-13438095Y-3883390D01*
X-13438095Y-3883390D02*
X-12866667Y-4454819D01*
X-12866667Y-4454819D02*
X-13485714Y-4454819D01*
X-9993333Y-4454819D02*
X-9660000Y-3978628D01*
X-9421905Y-4454819D02*
X-9421905Y-3454819D01*
X-9421905Y-3454819D02*
X-9802857Y-3454819D01*
X-9802857Y-3454819D02*
X-9898095Y-3502438D01*
X-9898095Y-3502438D02*
X-9945714Y-3550057D01*
X-9945714Y-3550057D02*
X-9993333Y-3645295D01*
X-9993333Y-3645295D02*
X-9993333Y-3788152D01*
X-9993333Y-3788152D02*
X-9945714Y-3883390D01*
X-9945714Y-3883390D02*
X-9898095Y-3931009D01*
X-9898095Y-3931009D02*
X-9802857Y-3978628D01*
X-9802857Y-3978628D02*
X-9421905Y-3978628D01*
X-10564762Y-3883390D02*
X-10469524Y-3835771D01*
X-10469524Y-3835771D02*
X-10421905Y-3788152D01*
X-10421905Y-3788152D02*
X-10374286Y-3692914D01*
X-10374286Y-3692914D02*
X-10374286Y-3645295D01*
X-10374286Y-3645295D02*
X-10421905Y-3550057D01*
X-10421905Y-3550057D02*
X-10469524Y-3502438D01*
X-10469524Y-3502438D02*
X-10564762Y-3454819D01*
X-10564762Y-3454819D02*
X-10755238Y-3454819D01*
X-10755238Y-3454819D02*
X-10850476Y-3502438D01*
X-10850476Y-3502438D02*
X-10898095Y-3550057D01*
X-10898095Y-3550057D02*
X-10945714Y-3645295D01*
X-10945714Y-3645295D02*
X-10945714Y-3692914D01*
X-10945714Y-3692914D02*
X-10898095Y-3788152D01*
X-10898095Y-3788152D02*
X-10850476Y-3835771D01*
X-10850476Y-3835771D02*
X-10755238Y-3883390D01*
X-10755238Y-3883390D02*
X-10564762Y-3883390D01*
X-10564762Y-3883390D02*
X-10469524Y-3931009D01*
X-10469524Y-3931009D02*
X-10421905Y-3978628D01*
X-10421905Y-3978628D02*
X-10374286Y-4073866D01*
X-10374286Y-4073866D02*
X-10374286Y-4264342D01*
X-10374286Y-4264342D02*
X-10421905Y-4359580D01*
X-10421905Y-4359580D02*
X-10469524Y-4407200D01*
X-10469524Y-4407200D02*
X-10564762Y-4454819D01*
X-10564762Y-4454819D02*
X-10755238Y-4454819D01*
X-10755238Y-4454819D02*
X-10850476Y-4407200D01*
X-10850476Y-4407200D02*
X-10898095Y-4359580D01*
X-10898095Y-4359580D02*
X-10945714Y-4264342D01*
X-10945714Y-4264342D02*
X-10945714Y-4073866D01*
X-10945714Y-4073866D02*
X-10898095Y-3978628D01*
X-10898095Y-3978628D02*
X-10850476Y-3931009D01*
X-10850476Y-3931009D02*
X-10755238Y-3883390D01*
D11*
X8058898Y-34941980D02*
X8106517Y-34989600D01*
X8106517Y-34989600D02*
X8249374Y-35037219D01*
X8249374Y-35037219D02*
X8344612Y-35037219D01*
X8344612Y-35037219D02*
X8487469Y-34989600D01*
X8487469Y-34989600D02*
X8582707Y-34894361D01*
X8582707Y-34894361D02*
X8630326Y-34799123D01*
X8630326Y-34799123D02*
X8677945Y-34608647D01*
X8677945Y-34608647D02*
X8677945Y-34465790D01*
X8677945Y-34465790D02*
X8630326Y-34275314D01*
X8630326Y-34275314D02*
X8582707Y-34180076D01*
X8582707Y-34180076D02*
X8487469Y-34084838D01*
X8487469Y-34084838D02*
X8344612Y-34037219D01*
X8344612Y-34037219D02*
X8249374Y-34037219D01*
X8249374Y-34037219D02*
X8106517Y-34084838D01*
X8106517Y-34084838D02*
X8058898Y-34132457D01*
X7677945Y-34751504D02*
X7201755Y-34751504D01*
X7773183Y-35037219D02*
X7439850Y-34037219D01*
X7439850Y-34037219D02*
X7106517Y-35037219D01*
X6296993Y-35037219D02*
X6773183Y-35037219D01*
X6773183Y-35037219D02*
X6773183Y-34037219D01*
X5392231Y-34941980D02*
X5439850Y-34989600D01*
X5439850Y-34989600D02*
X5582707Y-35037219D01*
X5582707Y-35037219D02*
X5677945Y-35037219D01*
X5677945Y-35037219D02*
X5820802Y-34989600D01*
X5820802Y-34989600D02*
X5916040Y-34894361D01*
X5916040Y-34894361D02*
X5963659Y-34799123D01*
X5963659Y-34799123D02*
X6011278Y-34608647D01*
X6011278Y-34608647D02*
X6011278Y-34465790D01*
X6011278Y-34465790D02*
X5963659Y-34275314D01*
X5963659Y-34275314D02*
X5916040Y-34180076D01*
X5916040Y-34180076D02*
X5820802Y-34084838D01*
X5820802Y-34084838D02*
X5677945Y-34037219D01*
X5677945Y-34037219D02*
X5582707Y-34037219D01*
X5582707Y-34037219D02*
X5439850Y-34084838D01*
X5439850Y-34084838D02*
X5392231Y-34132457D01*
X4963659Y-35037219D02*
X4963659Y-34037219D01*
X4963659Y-34037219D02*
X4582707Y-34037219D01*
X4582707Y-34037219D02*
X4487469Y-34084838D01*
X4487469Y-34084838D02*
X4439850Y-34132457D01*
X4439850Y-34132457D02*
X4392231Y-34227695D01*
X4392231Y-34227695D02*
X4392231Y-34370552D01*
X4392231Y-34370552D02*
X4439850Y-34465790D01*
X4439850Y-34465790D02*
X4487469Y-34513409D01*
X4487469Y-34513409D02*
X4582707Y-34561028D01*
X4582707Y-34561028D02*
X4963659Y-34561028D01*
X4011278Y-34989600D02*
X3868421Y-35037219D01*
X3868421Y-35037219D02*
X3630326Y-35037219D01*
X3630326Y-35037219D02*
X3535088Y-34989600D01*
X3535088Y-34989600D02*
X3487469Y-34941980D01*
X3487469Y-34941980D02*
X3439850Y-34846742D01*
X3439850Y-34846742D02*
X3439850Y-34751504D01*
X3439850Y-34751504D02*
X3487469Y-34656266D01*
X3487469Y-34656266D02*
X3535088Y-34608647D01*
X3535088Y-34608647D02*
X3630326Y-34561028D01*
X3630326Y-34561028D02*
X3820802Y-34513409D01*
X3820802Y-34513409D02*
X3916040Y-34465790D01*
X3916040Y-34465790D02*
X3963659Y-34418171D01*
X3963659Y-34418171D02*
X4011278Y-34322933D01*
X4011278Y-34322933D02*
X4011278Y-34227695D01*
X4011278Y-34227695D02*
X3963659Y-34132457D01*
X3963659Y-34132457D02*
X3916040Y-34084838D01*
X3916040Y-34084838D02*
X3820802Y-34037219D01*
X3820802Y-34037219D02*
X3582707Y-34037219D01*
X3582707Y-34037219D02*
X3439850Y-34084838D01*
X3011278Y-34037219D02*
X3011278Y-34846742D01*
X3011278Y-34846742D02*
X2963659Y-34941980D01*
X2963659Y-34941980D02*
X2916040Y-34989600D01*
X2916040Y-34989600D02*
X2820802Y-35037219D01*
X2820802Y-35037219D02*
X2630326Y-35037219D01*
X2630326Y-35037219D02*
X2535088Y-34989600D01*
X2535088Y-34989600D02*
X2487469Y-34941980D01*
X2487469Y-34941980D02*
X2439850Y-34846742D01*
X2439850Y-34846742D02*
X2439850Y-34037219D01*
X8773183Y-35647163D02*
X8201755Y-35647163D01*
X8487469Y-36647163D02*
X8487469Y-35647163D01*
X7868421Y-36647163D02*
X7868421Y-35647163D01*
X7392231Y-36266210D02*
X6630327Y-36266210D01*
X5725565Y-35980496D02*
X5725565Y-36647163D01*
X5963660Y-35599544D02*
X6201755Y-36313829D01*
X6201755Y-36313829D02*
X5582708Y-36313829D01*
X4725565Y-35647163D02*
X5201755Y-35647163D01*
X5201755Y-35647163D02*
X5249374Y-36123353D01*
X5249374Y-36123353D02*
X5201755Y-36075734D01*
X5201755Y-36075734D02*
X5106517Y-36028115D01*
X5106517Y-36028115D02*
X4868422Y-36028115D01*
X4868422Y-36028115D02*
X4773184Y-36075734D01*
X4773184Y-36075734D02*
X4725565Y-36123353D01*
X4725565Y-36123353D02*
X4677946Y-36218591D01*
X4677946Y-36218591D02*
X4677946Y-36456686D01*
X4677946Y-36456686D02*
X4725565Y-36551924D01*
X4725565Y-36551924D02*
X4773184Y-36599544D01*
X4773184Y-36599544D02*
X4868422Y-36647163D01*
X4868422Y-36647163D02*
X5106517Y-36647163D01*
X5106517Y-36647163D02*
X5201755Y-36599544D01*
X5201755Y-36599544D02*
X5249374Y-36551924D01*
X3487469Y-36647163D02*
X3487469Y-35647163D01*
X2916041Y-36647163D02*
X3344612Y-36075734D01*
X2916041Y-35647163D02*
X3487469Y-36218591D01*
X2487469Y-36123353D02*
X2154136Y-36123353D01*
X2011279Y-36647163D02*
X2487469Y-36647163D01*
X2487469Y-36647163D02*
X2487469Y-35647163D01*
X2487469Y-35647163D02*
X2011279Y-35647163D01*
X1392231Y-36170972D02*
X1392231Y-36647163D01*
X1725564Y-35647163D02*
X1392231Y-36170972D01*
X1392231Y-36170972D02*
X1058898Y-35647163D01*
X392231Y-36123353D02*
X249374Y-36170972D01*
X249374Y-36170972D02*
X201755Y-36218591D01*
X201755Y-36218591D02*
X154136Y-36313829D01*
X154136Y-36313829D02*
X154136Y-36456686D01*
X154136Y-36456686D02*
X201755Y-36551924D01*
X201755Y-36551924D02*
X249374Y-36599544D01*
X249374Y-36599544D02*
X344612Y-36647163D01*
X344612Y-36647163D02*
X725564Y-36647163D01*
X725564Y-36647163D02*
X725564Y-35647163D01*
X725564Y-35647163D02*
X392231Y-35647163D01*
X392231Y-35647163D02*
X296993Y-35694782D01*
X296993Y-35694782D02*
X249374Y-35742401D01*
X249374Y-35742401D02*
X201755Y-35837639D01*
X201755Y-35837639D02*
X201755Y-35932877D01*
X201755Y-35932877D02*
X249374Y-36028115D01*
X249374Y-36028115D02*
X296993Y-36075734D01*
X296993Y-36075734D02*
X392231Y-36123353D01*
X392231Y-36123353D02*
X725564Y-36123353D01*
X-464911Y-35647163D02*
X-655387Y-35647163D01*
X-655387Y-35647163D02*
X-750625Y-35694782D01*
X-750625Y-35694782D02*
X-845863Y-35790020D01*
X-845863Y-35790020D02*
X-893482Y-35980496D01*
X-893482Y-35980496D02*
X-893482Y-36313829D01*
X-893482Y-36313829D02*
X-845863Y-36504305D01*
X-845863Y-36504305D02*
X-750625Y-36599544D01*
X-750625Y-36599544D02*
X-655387Y-36647163D01*
X-655387Y-36647163D02*
X-464911Y-36647163D01*
X-464911Y-36647163D02*
X-369673Y-36599544D01*
X-369673Y-36599544D02*
X-274435Y-36504305D01*
X-274435Y-36504305D02*
X-226816Y-36313829D01*
X-226816Y-36313829D02*
X-226816Y-35980496D01*
X-226816Y-35980496D02*
X-274435Y-35790020D01*
X-274435Y-35790020D02*
X-369673Y-35694782D01*
X-369673Y-35694782D02*
X-464911Y-35647163D01*
X-1274435Y-36361448D02*
X-1750625Y-36361448D01*
X-1179197Y-36647163D02*
X-1512530Y-35647163D01*
X-1512530Y-35647163D02*
X-1845863Y-36647163D01*
X-2750625Y-36647163D02*
X-2417292Y-36170972D01*
X-2179197Y-36647163D02*
X-2179197Y-35647163D01*
X-2179197Y-35647163D02*
X-2560149Y-35647163D01*
X-2560149Y-35647163D02*
X-2655387Y-35694782D01*
X-2655387Y-35694782D02*
X-2703006Y-35742401D01*
X-2703006Y-35742401D02*
X-2750625Y-35837639D01*
X-2750625Y-35837639D02*
X-2750625Y-35980496D01*
X-2750625Y-35980496D02*
X-2703006Y-36075734D01*
X-2703006Y-36075734D02*
X-2655387Y-36123353D01*
X-2655387Y-36123353D02*
X-2560149Y-36170972D01*
X-2560149Y-36170972D02*
X-2179197Y-36170972D01*
X-3179197Y-36647163D02*
X-3179197Y-35647163D01*
X-3179197Y-35647163D02*
X-3417292Y-35647163D01*
X-3417292Y-35647163D02*
X-3560149Y-35694782D01*
X-3560149Y-35694782D02*
X-3655387Y-35790020D01*
X-3655387Y-35790020D02*
X-3703006Y-35885258D01*
X-3703006Y-35885258D02*
X-3750625Y-36075734D01*
X-3750625Y-36075734D02*
X-3750625Y-36218591D01*
X-3750625Y-36218591D02*
X-3703006Y-36409067D01*
X-3703006Y-36409067D02*
X-3655387Y-36504305D01*
X-3655387Y-36504305D02*
X-3560149Y-36599544D01*
X-3560149Y-36599544D02*
X-3417292Y-36647163D01*
X-3417292Y-36647163D02*
X-3179197Y-36647163D01*
D10*
X12866666Y-4359580D02*
X12914285Y-4407200D01*
X12914285Y-4407200D02*
X13057142Y-4454819D01*
X13057142Y-4454819D02*
X13152380Y-4454819D01*
X13152380Y-4454819D02*
X13295237Y-4407200D01*
X13295237Y-4407200D02*
X13390475Y-4311961D01*
X13390475Y-4311961D02*
X13438094Y-4216723D01*
X13438094Y-4216723D02*
X13485713Y-4026247D01*
X13485713Y-4026247D02*
X13485713Y-3883390D01*
X13485713Y-3883390D02*
X13438094Y-3692914D01*
X13438094Y-3692914D02*
X13390475Y-3597676D01*
X13390475Y-3597676D02*
X13295237Y-3502438D01*
X13295237Y-3502438D02*
X13152380Y-3454819D01*
X13152380Y-3454819D02*
X13057142Y-3454819D01*
X13057142Y-3454819D02*
X12914285Y-3502438D01*
X12914285Y-3502438D02*
X12866666Y-3550057D01*
X12009523Y-3788152D02*
X12009523Y-4454819D01*
X12247618Y-3407200D02*
X12485713Y-4121485D01*
X12485713Y-4121485D02*
X11866666Y-4121485D01*
X25566666Y-4359580D02*
X25614285Y-4407200D01*
X25614285Y-4407200D02*
X25757142Y-4454819D01*
X25757142Y-4454819D02*
X25852380Y-4454819D01*
X25852380Y-4454819D02*
X25995237Y-4407200D01*
X25995237Y-4407200D02*
X26090475Y-4311961D01*
X26090475Y-4311961D02*
X26138094Y-4216723D01*
X26138094Y-4216723D02*
X26185713Y-4026247D01*
X26185713Y-4026247D02*
X26185713Y-3883390D01*
X26185713Y-3883390D02*
X26138094Y-3692914D01*
X26138094Y-3692914D02*
X26090475Y-3597676D01*
X26090475Y-3597676D02*
X25995237Y-3502438D01*
X25995237Y-3502438D02*
X25852380Y-3454819D01*
X25852380Y-3454819D02*
X25757142Y-3454819D01*
X25757142Y-3454819D02*
X25614285Y-3502438D01*
X25614285Y-3502438D02*
X25566666Y-3550057D01*
X24661904Y-3454819D02*
X25138094Y-3454819D01*
X25138094Y-3454819D02*
X25185713Y-3931009D01*
X25185713Y-3931009D02*
X25138094Y-3883390D01*
X25138094Y-3883390D02*
X25042856Y-3835771D01*
X25042856Y-3835771D02*
X24804761Y-3835771D01*
X24804761Y-3835771D02*
X24709523Y-3883390D01*
X24709523Y-3883390D02*
X24661904Y-3931009D01*
X24661904Y-3931009D02*
X24614285Y-4026247D01*
X24614285Y-4026247D02*
X24614285Y-4264342D01*
X24614285Y-4264342D02*
X24661904Y-4359580D01*
X24661904Y-4359580D02*
X24709523Y-4407200D01*
X24709523Y-4407200D02*
X24804761Y-4454819D01*
X24804761Y-4454819D02*
X25042856Y-4454819D01*
X25042856Y-4454819D02*
X25138094Y-4407200D01*
X25138094Y-4407200D02*
X25185713Y-4359580D01*
X10326666Y-4454819D02*
X10659999Y-3978628D01*
X10898094Y-4454819D02*
X10898094Y-3454819D01*
X10898094Y-3454819D02*
X10517142Y-3454819D01*
X10517142Y-3454819D02*
X10421904Y-3502438D01*
X10421904Y-3502438D02*
X10374285Y-3550057D01*
X10374285Y-3550057D02*
X10326666Y-3645295D01*
X10326666Y-3645295D02*
X10326666Y-3788152D01*
X10326666Y-3788152D02*
X10374285Y-3883390D01*
X10374285Y-3883390D02*
X10421904Y-3931009D01*
X10421904Y-3931009D02*
X10517142Y-3978628D01*
X10517142Y-3978628D02*
X10898094Y-3978628D01*
X9993332Y-3454819D02*
X9374285Y-3454819D01*
X9374285Y-3454819D02*
X9707618Y-3835771D01*
X9707618Y-3835771D02*
X9564761Y-3835771D01*
X9564761Y-3835771D02*
X9469523Y-3883390D01*
X9469523Y-3883390D02*
X9421904Y-3931009D01*
X9421904Y-3931009D02*
X9374285Y-4026247D01*
X9374285Y-4026247D02*
X9374285Y-4264342D01*
X9374285Y-4264342D02*
X9421904Y-4359580D01*
X9421904Y-4359580D02*
X9469523Y-4407200D01*
X9469523Y-4407200D02*
X9564761Y-4454819D01*
X9564761Y-4454819D02*
X9850475Y-4454819D01*
X9850475Y-4454819D02*
X9945713Y-4407200D01*
X9945713Y-4407200D02*
X9993332Y-4359580D01*
X20486666Y-4454819D02*
X20819999Y-3978628D01*
X21058094Y-4454819D02*
X21058094Y-3454819D01*
X21058094Y-3454819D02*
X20677142Y-3454819D01*
X20677142Y-3454819D02*
X20581904Y-3502438D01*
X20581904Y-3502438D02*
X20534285Y-3550057D01*
X20534285Y-3550057D02*
X20486666Y-3645295D01*
X20486666Y-3645295D02*
X20486666Y-3788152D01*
X20486666Y-3788152D02*
X20534285Y-3883390D01*
X20534285Y-3883390D02*
X20581904Y-3931009D01*
X20581904Y-3931009D02*
X20677142Y-3978628D01*
X20677142Y-3978628D02*
X21058094Y-3978628D01*
X19629523Y-3454819D02*
X19819999Y-3454819D01*
X19819999Y-3454819D02*
X19915237Y-3502438D01*
X19915237Y-3502438D02*
X19962856Y-3550057D01*
X19962856Y-3550057D02*
X20058094Y-3692914D01*
X20058094Y-3692914D02*
X20105713Y-3883390D01*
X20105713Y-3883390D02*
X20105713Y-4264342D01*
X20105713Y-4264342D02*
X20058094Y-4359580D01*
X20058094Y-4359580D02*
X20010475Y-4407200D01*
X20010475Y-4407200D02*
X19915237Y-4454819D01*
X19915237Y-4454819D02*
X19724761Y-4454819D01*
X19724761Y-4454819D02*
X19629523Y-4407200D01*
X19629523Y-4407200D02*
X19581904Y-4359580D01*
X19581904Y-4359580D02*
X19534285Y-4264342D01*
X19534285Y-4264342D02*
X19534285Y-4026247D01*
X19534285Y-4026247D02*
X19581904Y-3931009D01*
X19581904Y-3931009D02*
X19629523Y-3883390D01*
X19629523Y-3883390D02*
X19724761Y-3835771D01*
X19724761Y-3835771D02*
X19915237Y-3835771D01*
X19915237Y-3835771D02*
X20010475Y-3883390D01*
X20010475Y-3883390D02*
X20058094Y-3931009D01*
X20058094Y-3931009D02*
X20105713Y-4026247D01*
X-20153333Y-4454819D02*
X-19820000Y-3978628D01*
X-19581905Y-4454819D02*
X-19581905Y-3454819D01*
X-19581905Y-3454819D02*
X-19962857Y-3454819D01*
X-19962857Y-3454819D02*
X-20058095Y-3502438D01*
X-20058095Y-3502438D02*
X-20105714Y-3550057D01*
X-20105714Y-3550057D02*
X-20153333Y-3645295D01*
X-20153333Y-3645295D02*
X-20153333Y-3788152D01*
X-20153333Y-3788152D02*
X-20105714Y-3883390D01*
X-20105714Y-3883390D02*
X-20058095Y-3931009D01*
X-20058095Y-3931009D02*
X-19962857Y-3978628D01*
X-19962857Y-3978628D02*
X-19581905Y-3978628D01*
X-20486667Y-3454819D02*
X-21153333Y-3454819D01*
X-21153333Y-3454819D02*
X-20724762Y-4454819D01*
X-17613333Y-4454819D02*
X-17280000Y-3978628D01*
X-17041905Y-4454819D02*
X-17041905Y-3454819D01*
X-17041905Y-3454819D02*
X-17422857Y-3454819D01*
X-17422857Y-3454819D02*
X-17518095Y-3502438D01*
X-17518095Y-3502438D02*
X-17565714Y-3550057D01*
X-17565714Y-3550057D02*
X-17613333Y-3645295D01*
X-17613333Y-3645295D02*
X-17613333Y-3788152D01*
X-17613333Y-3788152D02*
X-17565714Y-3883390D01*
X-17565714Y-3883390D02*
X-17518095Y-3931009D01*
X-17518095Y-3931009D02*
X-17422857Y-3978628D01*
X-17422857Y-3978628D02*
X-17041905Y-3978628D01*
X-17994286Y-3550057D02*
X-18041905Y-3502438D01*
X-18041905Y-3502438D02*
X-18137143Y-3454819D01*
X-18137143Y-3454819D02*
X-18375238Y-3454819D01*
X-18375238Y-3454819D02*
X-18470476Y-3502438D01*
X-18470476Y-3502438D02*
X-18518095Y-3550057D01*
X-18518095Y-3550057D02*
X-18565714Y-3645295D01*
X-18565714Y-3645295D02*
X-18565714Y-3740533D01*
X-18565714Y-3740533D02*
X-18518095Y-3883390D01*
X-18518095Y-3883390D02*
X-17946667Y-4454819D01*
X-17946667Y-4454819D02*
X-18565714Y-4454819D01*
X166666Y-4359580D02*
X214285Y-4407200D01*
X214285Y-4407200D02*
X357142Y-4454819D01*
X357142Y-4454819D02*
X452380Y-4454819D01*
X452380Y-4454819D02*
X595237Y-4407200D01*
X595237Y-4407200D02*
X690475Y-4311961D01*
X690475Y-4311961D02*
X738094Y-4216723D01*
X738094Y-4216723D02*
X785713Y-4026247D01*
X785713Y-4026247D02*
X785713Y-3883390D01*
X785713Y-3883390D02*
X738094Y-3692914D01*
X738094Y-3692914D02*
X690475Y-3597676D01*
X690475Y-3597676D02*
X595237Y-3502438D01*
X595237Y-3502438D02*
X452380Y-3454819D01*
X452380Y-3454819D02*
X357142Y-3454819D01*
X357142Y-3454819D02*
X214285Y-3502438D01*
X214285Y-3502438D02*
X166666Y-3550057D01*
X-166667Y-3454819D02*
X-785714Y-3454819D01*
X-785714Y-3454819D02*
X-452381Y-3835771D01*
X-452381Y-3835771D02*
X-595238Y-3835771D01*
X-595238Y-3835771D02*
X-690476Y-3883390D01*
X-690476Y-3883390D02*
X-738095Y-3931009D01*
X-738095Y-3931009D02*
X-785714Y-4026247D01*
X-785714Y-4026247D02*
X-785714Y-4264342D01*
X-785714Y-4264342D02*
X-738095Y-4359580D01*
X-738095Y-4359580D02*
X-690476Y-4407200D01*
X-690476Y-4407200D02*
X-595238Y-4454819D01*
X-595238Y-4454819D02*
X-309524Y-4454819D01*
X-309524Y-4454819D02*
X-214286Y-4407200D01*
X-214286Y-4407200D02*
X-166667Y-4359580D01*
X5246666Y-4454819D02*
X5579999Y-3978628D01*
X5818094Y-4454819D02*
X5818094Y-3454819D01*
X5818094Y-3454819D02*
X5437142Y-3454819D01*
X5437142Y-3454819D02*
X5341904Y-3502438D01*
X5341904Y-3502438D02*
X5294285Y-3550057D01*
X5294285Y-3550057D02*
X5246666Y-3645295D01*
X5246666Y-3645295D02*
X5246666Y-3788152D01*
X5246666Y-3788152D02*
X5294285Y-3883390D01*
X5294285Y-3883390D02*
X5341904Y-3931009D01*
X5341904Y-3931009D02*
X5437142Y-3978628D01*
X5437142Y-3978628D02*
X5818094Y-3978628D01*
X4389523Y-3788152D02*
X4389523Y-4454819D01*
X4627618Y-3407200D02*
X4865713Y-4121485D01*
X4865713Y-4121485D02*
X4246666Y-4121485D01*
X8663220Y-39039819D02*
X8663220Y-38039819D01*
X8663220Y-38039819D02*
X8329887Y-38754104D01*
X8329887Y-38754104D02*
X7996554Y-38039819D01*
X7996554Y-38039819D02*
X7996554Y-39039819D01*
X7329887Y-38039819D02*
X7139411Y-38039819D01*
X7139411Y-38039819D02*
X7044173Y-38087438D01*
X7044173Y-38087438D02*
X6948935Y-38182676D01*
X6948935Y-38182676D02*
X6901316Y-38373152D01*
X6901316Y-38373152D02*
X6901316Y-38706485D01*
X6901316Y-38706485D02*
X6948935Y-38896961D01*
X6948935Y-38896961D02*
X7044173Y-38992200D01*
X7044173Y-38992200D02*
X7139411Y-39039819D01*
X7139411Y-39039819D02*
X7329887Y-39039819D01*
X7329887Y-39039819D02*
X7425125Y-38992200D01*
X7425125Y-38992200D02*
X7520363Y-38896961D01*
X7520363Y-38896961D02*
X7567982Y-38706485D01*
X7567982Y-38706485D02*
X7567982Y-38373152D01*
X7567982Y-38373152D02*
X7520363Y-38182676D01*
X7520363Y-38182676D02*
X7425125Y-38087438D01*
X7425125Y-38087438D02*
X7329887Y-38039819D01*
X6472744Y-39039819D02*
X6472744Y-38039819D01*
X6472744Y-38039819D02*
X6234649Y-38039819D01*
X6234649Y-38039819D02*
X6091792Y-38087438D01*
X6091792Y-38087438D02*
X5996554Y-38182676D01*
X5996554Y-38182676D02*
X5948935Y-38277914D01*
X5948935Y-38277914D02*
X5901316Y-38468390D01*
X5901316Y-38468390D02*
X5901316Y-38611247D01*
X5901316Y-38611247D02*
X5948935Y-38801723D01*
X5948935Y-38801723D02*
X5996554Y-38896961D01*
X5996554Y-38896961D02*
X6091792Y-38992200D01*
X6091792Y-38992200D02*
X6234649Y-39039819D01*
X6234649Y-39039819D02*
X6472744Y-39039819D01*
X5472744Y-38516009D02*
X5139411Y-38516009D01*
X4996554Y-39039819D02*
X5472744Y-39039819D01*
X5472744Y-39039819D02*
X5472744Y-38039819D01*
X5472744Y-38039819D02*
X4996554Y-38039819D01*
X4091792Y-39039819D02*
X4567982Y-39039819D01*
X4567982Y-39039819D02*
X4567982Y-38039819D01*
X3758458Y-38944580D02*
X3710839Y-38992200D01*
X3710839Y-38992200D02*
X3758458Y-39039819D01*
X3758458Y-39039819D02*
X3806077Y-38992200D01*
X3806077Y-38992200D02*
X3758458Y-38944580D01*
X3758458Y-38944580D02*
X3758458Y-39039819D01*
X3758458Y-38420771D02*
X3710839Y-38468390D01*
X3710839Y-38468390D02*
X3758458Y-38516009D01*
X3758458Y-38516009D02*
X3806077Y-38468390D01*
X3806077Y-38468390D02*
X3758458Y-38420771D01*
X3758458Y-38420771D02*
X3758458Y-38516009D01*
X8806077Y-39649763D02*
X8472744Y-40649763D01*
X8472744Y-40649763D02*
X8139411Y-39649763D01*
X7806077Y-40125953D02*
X7472744Y-40125953D01*
X7329887Y-40649763D02*
X7806077Y-40649763D01*
X7806077Y-40649763D02*
X7806077Y-39649763D01*
X7806077Y-39649763D02*
X7329887Y-39649763D01*
X6329887Y-40649763D02*
X6663220Y-40173572D01*
X6901315Y-40649763D02*
X6901315Y-39649763D01*
X6901315Y-39649763D02*
X6520363Y-39649763D01*
X6520363Y-39649763D02*
X6425125Y-39697382D01*
X6425125Y-39697382D02*
X6377506Y-39745001D01*
X6377506Y-39745001D02*
X6329887Y-39840239D01*
X6329887Y-39840239D02*
X6329887Y-39983096D01*
X6329887Y-39983096D02*
X6377506Y-40078334D01*
X6377506Y-40078334D02*
X6425125Y-40125953D01*
X6425125Y-40125953D02*
X6520363Y-40173572D01*
X6520363Y-40173572D02*
X6901315Y-40173572D01*
X5948934Y-40602144D02*
X5806077Y-40649763D01*
X5806077Y-40649763D02*
X5567982Y-40649763D01*
X5567982Y-40649763D02*
X5472744Y-40602144D01*
X5472744Y-40602144D02*
X5425125Y-40554524D01*
X5425125Y-40554524D02*
X5377506Y-40459286D01*
X5377506Y-40459286D02*
X5377506Y-40364048D01*
X5377506Y-40364048D02*
X5425125Y-40268810D01*
X5425125Y-40268810D02*
X5472744Y-40221191D01*
X5472744Y-40221191D02*
X5567982Y-40173572D01*
X5567982Y-40173572D02*
X5758458Y-40125953D01*
X5758458Y-40125953D02*
X5853696Y-40078334D01*
X5853696Y-40078334D02*
X5901315Y-40030715D01*
X5901315Y-40030715D02*
X5948934Y-39935477D01*
X5948934Y-39935477D02*
X5948934Y-39840239D01*
X5948934Y-39840239D02*
X5901315Y-39745001D01*
X5901315Y-39745001D02*
X5853696Y-39697382D01*
X5853696Y-39697382D02*
X5758458Y-39649763D01*
X5758458Y-39649763D02*
X5520363Y-39649763D01*
X5520363Y-39649763D02*
X5377506Y-39697382D01*
X4948934Y-40649763D02*
X4948934Y-39649763D01*
X4282268Y-39649763D02*
X4091792Y-39649763D01*
X4091792Y-39649763D02*
X3996554Y-39697382D01*
X3996554Y-39697382D02*
X3901316Y-39792620D01*
X3901316Y-39792620D02*
X3853697Y-39983096D01*
X3853697Y-39983096D02*
X3853697Y-40316429D01*
X3853697Y-40316429D02*
X3901316Y-40506905D01*
X3901316Y-40506905D02*
X3996554Y-40602144D01*
X3996554Y-40602144D02*
X4091792Y-40649763D01*
X4091792Y-40649763D02*
X4282268Y-40649763D01*
X4282268Y-40649763D02*
X4377506Y-40602144D01*
X4377506Y-40602144D02*
X4472744Y-40506905D01*
X4472744Y-40506905D02*
X4520363Y-40316429D01*
X4520363Y-40316429D02*
X4520363Y-39983096D01*
X4520363Y-39983096D02*
X4472744Y-39792620D01*
X4472744Y-39792620D02*
X4377506Y-39697382D01*
X4377506Y-39697382D02*
X4282268Y-39649763D01*
X3425125Y-40649763D02*
X3425125Y-39649763D01*
X3425125Y-39649763D02*
X2853697Y-40649763D01*
X2853697Y-40649763D02*
X2853697Y-39649763D01*
X2377506Y-40554524D02*
X2329887Y-40602144D01*
X2329887Y-40602144D02*
X2377506Y-40649763D01*
X2377506Y-40649763D02*
X2425125Y-40602144D01*
X2425125Y-40602144D02*
X2377506Y-40554524D01*
X2377506Y-40554524D02*
X2377506Y-40649763D01*
X2377506Y-40030715D02*
X2329887Y-40078334D01*
X2329887Y-40078334D02*
X2377506Y-40125953D01*
X2377506Y-40125953D02*
X2425125Y-40078334D01*
X2425125Y-40078334D02*
X2377506Y-40030715D01*
X2377506Y-40030715D02*
X2377506Y-40125953D01*
X8710839Y-42212088D02*
X8567982Y-42259707D01*
X8567982Y-42259707D02*
X8329887Y-42259707D01*
X8329887Y-42259707D02*
X8234649Y-42212088D01*
X8234649Y-42212088D02*
X8187030Y-42164468D01*
X8187030Y-42164468D02*
X8139411Y-42069230D01*
X8139411Y-42069230D02*
X8139411Y-41973992D01*
X8139411Y-41973992D02*
X8187030Y-41878754D01*
X8187030Y-41878754D02*
X8234649Y-41831135D01*
X8234649Y-41831135D02*
X8329887Y-41783516D01*
X8329887Y-41783516D02*
X8520363Y-41735897D01*
X8520363Y-41735897D02*
X8615601Y-41688278D01*
X8615601Y-41688278D02*
X8663220Y-41640659D01*
X8663220Y-41640659D02*
X8710839Y-41545421D01*
X8710839Y-41545421D02*
X8710839Y-41450183D01*
X8710839Y-41450183D02*
X8663220Y-41354945D01*
X8663220Y-41354945D02*
X8615601Y-41307326D01*
X8615601Y-41307326D02*
X8520363Y-41259707D01*
X8520363Y-41259707D02*
X8282268Y-41259707D01*
X8282268Y-41259707D02*
X8139411Y-41307326D01*
X7710839Y-41735897D02*
X7377506Y-41735897D01*
X7234649Y-42259707D02*
X7710839Y-42259707D01*
X7710839Y-42259707D02*
X7710839Y-41259707D01*
X7710839Y-41259707D02*
X7234649Y-41259707D01*
X6234649Y-42259707D02*
X6567982Y-41783516D01*
X6806077Y-42259707D02*
X6806077Y-41259707D01*
X6806077Y-41259707D02*
X6425125Y-41259707D01*
X6425125Y-41259707D02*
X6329887Y-41307326D01*
X6329887Y-41307326D02*
X6282268Y-41354945D01*
X6282268Y-41354945D02*
X6234649Y-41450183D01*
X6234649Y-41450183D02*
X6234649Y-41593040D01*
X6234649Y-41593040D02*
X6282268Y-41688278D01*
X6282268Y-41688278D02*
X6329887Y-41735897D01*
X6329887Y-41735897D02*
X6425125Y-41783516D01*
X6425125Y-41783516D02*
X6806077Y-41783516D01*
X5806077Y-42259707D02*
X5806077Y-41259707D01*
X5377506Y-41973992D02*
X4901316Y-41973992D01*
X5472744Y-42259707D02*
X5139411Y-41259707D01*
X5139411Y-41259707D02*
X4806078Y-42259707D01*
X3996554Y-42259707D02*
X4472744Y-42259707D01*
X4472744Y-42259707D02*
X4472744Y-41259707D01*
X3663220Y-42164468D02*
X3615601Y-42212088D01*
X3615601Y-42212088D02*
X3663220Y-42259707D01*
X3663220Y-42259707D02*
X3710839Y-42212088D01*
X3710839Y-42212088D02*
X3663220Y-42164468D01*
X3663220Y-42164468D02*
X3663220Y-42259707D01*
X3663220Y-41640659D02*
X3615601Y-41688278D01*
X3615601Y-41688278D02*
X3663220Y-41735897D01*
X3663220Y-41735897D02*
X3710839Y-41688278D01*
X3710839Y-41688278D02*
X3663220Y-41640659D01*
X3663220Y-41640659D02*
X3663220Y-41735897D01*
X-25333333Y-4359580D02*
X-25285714Y-4407200D01*
X-25285714Y-4407200D02*
X-25142857Y-4454819D01*
X-25142857Y-4454819D02*
X-25047619Y-4454819D01*
X-25047619Y-4454819D02*
X-24904762Y-4407200D01*
X-24904762Y-4407200D02*
X-24809524Y-4311961D01*
X-24809524Y-4311961D02*
X-24761905Y-4216723D01*
X-24761905Y-4216723D02*
X-24714286Y-4026247D01*
X-24714286Y-4026247D02*
X-24714286Y-3883390D01*
X-24714286Y-3883390D02*
X-24761905Y-3692914D01*
X-24761905Y-3692914D02*
X-24809524Y-3597676D01*
X-24809524Y-3597676D02*
X-24904762Y-3502438D01*
X-24904762Y-3502438D02*
X-25047619Y-3454819D01*
X-25047619Y-3454819D02*
X-25142857Y-3454819D01*
X-25142857Y-3454819D02*
X-25285714Y-3502438D01*
X-25285714Y-3502438D02*
X-25333333Y-3550057D01*
X-26285714Y-4454819D02*
X-25714286Y-4454819D01*
X-26000000Y-4454819D02*
X-26000000Y-3454819D01*
X-26000000Y-3454819D02*
X-25904762Y-3597676D01*
X-25904762Y-3597676D02*
X-25809524Y-3692914D01*
X-25809524Y-3692914D02*
X-25714286Y-3740533D01*
X663220Y-39039819D02*
X663220Y-38039819D01*
X91792Y-39039819D02*
X520363Y-38468390D01*
X91792Y-38039819D02*
X663220Y-38611247D01*
X-193922Y-38039819D02*
X-765350Y-38039819D01*
X-479636Y-39039819D02*
X-479636Y-38039819D01*
X-1098684Y-39039819D02*
X-1098684Y-38039819D01*
X-2003445Y-38373152D02*
X-2003445Y-39039819D01*
X-1765350Y-37992200D02*
X-1527255Y-38706485D01*
X-1527255Y-38706485D02*
X-2146302Y-38706485D01*
X-3003445Y-38039819D02*
X-2527255Y-38039819D01*
X-2527255Y-38039819D02*
X-2479636Y-38516009D01*
X-2479636Y-38516009D02*
X-2527255Y-38468390D01*
X-2527255Y-38468390D02*
X-2622493Y-38420771D01*
X-2622493Y-38420771D02*
X-2860588Y-38420771D01*
X-2860588Y-38420771D02*
X-2955826Y-38468390D01*
X-2955826Y-38468390D02*
X-3003445Y-38516009D01*
X-3003445Y-38516009D02*
X-3051064Y-38611247D01*
X-3051064Y-38611247D02*
X-3051064Y-38849342D01*
X-3051064Y-38849342D02*
X-3003445Y-38944580D01*
X-3003445Y-38944580D02*
X-2955826Y-38992200D01*
X-2955826Y-38992200D02*
X-2860588Y-39039819D01*
X-2860588Y-39039819D02*
X-2622493Y-39039819D01*
X-2622493Y-39039819D02*
X-2527255Y-38992200D01*
X-2527255Y-38992200D02*
X-2479636Y-38944580D01*
X139411Y-40649763D02*
X710839Y-40649763D01*
X425125Y-40649763D02*
X425125Y-39649763D01*
X425125Y-39649763D02*
X520363Y-39792620D01*
X520363Y-39792620D02*
X615601Y-39887858D01*
X615601Y-39887858D02*
X710839Y-39935477D01*
D12*
%TO.C,REF\u002A\u002A*%
G36*
X-6452585Y-37680012D02*
G01*
X-6433685Y-37685393D01*
X-6418999Y-37697205D01*
X-6410286Y-37714158D01*
X-6409612Y-37717751D01*
X-6408434Y-37731303D01*
X-6407543Y-37753171D01*
X-6406938Y-37783418D01*
X-6406618Y-37822108D01*
X-6406581Y-37869303D01*
X-6406827Y-37925066D01*
X-6407020Y-37953854D01*
X-6407342Y-37995242D01*
X-6407697Y-38029256D01*
X-6408120Y-38056682D01*
X-6408644Y-38078310D01*
X-6409306Y-38094926D01*
X-6410139Y-38107319D01*
X-6411179Y-38116275D01*
X-6412460Y-38122585D01*
X-6414016Y-38127033D01*
X-6415884Y-38130410D01*
X-6424049Y-38139824D01*
X-6433157Y-38146133D01*
X-6434795Y-38146520D01*
X-6444476Y-38147455D01*
X-6461197Y-38148306D01*
X-6483815Y-38149041D01*
X-6511187Y-38149627D01*
X-6542170Y-38150030D01*
X-6575622Y-38150219D01*
X-6590242Y-38150242D01*
X-6628126Y-38150180D01*
X-6658543Y-38149841D01*
X-6682366Y-38149120D01*
X-6700468Y-38147913D01*
X-6713723Y-38146112D01*
X-6723004Y-38143612D01*
X-6729185Y-38140309D01*
X-6733139Y-38136096D01*
X-6735739Y-38130867D01*
X-6737480Y-38124499D01*
X-6737953Y-38108369D01*
X-6733976Y-38094117D01*
X-6733599Y-38093423D01*
X-6729399Y-38087212D01*
X-6723783Y-38082373D01*
X-6715721Y-38078739D01*
X-6704180Y-38076141D01*
X-6688130Y-38074412D01*
X-6666539Y-38073385D01*
X-6638377Y-38072892D01*
X-6602611Y-38072764D01*
X-6500918Y-38072764D01*
X-6500918Y-37890966D01*
X-6500918Y-37709167D01*
X-6486235Y-37694485D01*
X-6481847Y-37690326D01*
X-6469672Y-37682181D01*
X-6457087Y-37679819D01*
X-6452585Y-37680012D01*
G37*
G36*
X-7247976Y-37924284D02*
G01*
X-7247976Y-38129765D01*
X-7262658Y-38144448D01*
X-7278552Y-38155953D01*
X-7295685Y-38159214D01*
X-7314646Y-38154146D01*
X-7315846Y-38153590D01*
X-7324232Y-38148855D01*
X-7330541Y-38142803D01*
X-7335095Y-38134214D01*
X-7338220Y-38121868D01*
X-7340238Y-38104546D01*
X-7341473Y-38081028D01*
X-7342248Y-38050094D01*
X-7343678Y-37973444D01*
X-7381113Y-37973370D01*
X-7409290Y-37972845D01*
X-7456661Y-37969214D01*
X-7496587Y-37961934D01*
X-7529421Y-37950770D01*
X-7555517Y-37935487D01*
X-7575228Y-37915852D01*
X-7588907Y-37891631D01*
X-7596907Y-37862589D01*
X-7599390Y-37830928D01*
X-7502754Y-37830928D01*
X-7502435Y-37839533D01*
X-7497680Y-37860275D01*
X-7486579Y-37875999D01*
X-7468302Y-37888085D01*
X-7462510Y-37890675D01*
X-7451586Y-37894220D01*
X-7438214Y-37896628D01*
X-7420331Y-37898219D01*
X-7395877Y-37899310D01*
X-7342978Y-37901077D01*
X-7342978Y-37828648D01*
X-7342978Y-37756219D01*
X-7396797Y-37758762D01*
X-7419483Y-37760241D01*
X-7448414Y-37764111D01*
X-7470208Y-37770385D01*
X-7485703Y-37779634D01*
X-7495733Y-37792427D01*
X-7501138Y-37809335D01*
X-7502754Y-37830928D01*
X-7599390Y-37830928D01*
X-7599581Y-37828493D01*
X-7599554Y-37817348D01*
X-7598854Y-37800739D01*
X-7596755Y-37787928D01*
X-7592605Y-37775732D01*
X-7585753Y-37760970D01*
X-7578700Y-37747950D01*
X-7564256Y-37728721D01*
X-7545804Y-37713476D01*
X-7521034Y-37700040D01*
X-7518516Y-37698897D01*
X-7512010Y-37696286D01*
X-7504980Y-37694287D01*
X-7496267Y-37692820D01*
X-7484712Y-37691803D01*
X-7469157Y-37691154D01*
X-7448441Y-37690791D01*
X-7421407Y-37690633D01*
X-7386895Y-37690598D01*
X-7273195Y-37690598D01*
X-7260586Y-37704701D01*
X-7247976Y-37718803D01*
X-7247976Y-37756219D01*
X-7247976Y-37924284D01*
G37*
G36*
X-7495964Y-36349887D02*
G01*
X-7459957Y-36350041D01*
X-7430333Y-36350387D01*
X-7406321Y-36350997D01*
X-7387147Y-36351940D01*
X-7372041Y-36353287D01*
X-7360229Y-36355108D01*
X-7350941Y-36357475D01*
X-7343404Y-36360456D01*
X-7336845Y-36364124D01*
X-7330494Y-36368548D01*
X-7323577Y-36373799D01*
X-7316763Y-36380182D01*
X-7305129Y-36395289D01*
X-7294427Y-36413873D01*
X-7280363Y-36442440D01*
X-7280363Y-36623898D01*
X-7280363Y-36805355D01*
X-7292498Y-36830071D01*
X-7296472Y-36837517D01*
X-7314128Y-36861342D01*
X-7335963Y-36879921D01*
X-7360119Y-36891565D01*
X-7367517Y-36892786D01*
X-7383073Y-36894031D01*
X-7405227Y-36895127D01*
X-7432899Y-36896071D01*
X-7465008Y-36896856D01*
X-7500474Y-36897479D01*
X-7538217Y-36897933D01*
X-7577154Y-36898214D01*
X-7616208Y-36898318D01*
X-7654295Y-36898237D01*
X-7690337Y-36897969D01*
X-7723253Y-36897507D01*
X-7751961Y-36896847D01*
X-7775382Y-36895984D01*
X-7792435Y-36894912D01*
X-7802040Y-36893627D01*
X-7809493Y-36891430D01*
X-7835333Y-36878255D01*
X-7857347Y-36857743D01*
X-7874815Y-36830519D01*
X-7889238Y-36801224D01*
X-7889238Y-36624082D01*
X-7889226Y-36587552D01*
X-7889111Y-36546551D01*
X-7888769Y-36512662D01*
X-7888076Y-36485021D01*
X-7886910Y-36462763D01*
X-7885146Y-36445022D01*
X-7882661Y-36430934D01*
X-7879332Y-36419634D01*
X-7875034Y-36410256D01*
X-7869645Y-36401935D01*
X-7863041Y-36393807D01*
X-7855099Y-36385006D01*
X-7852672Y-36382350D01*
X-7846093Y-36375197D01*
X-7839964Y-36369183D01*
X-7833530Y-36364207D01*
X-7826032Y-36360172D01*
X-7816713Y-36356979D01*
X-7804817Y-36354528D01*
X-7789584Y-36352721D01*
X-7770260Y-36351460D01*
X-7746085Y-36350645D01*
X-7716303Y-36350178D01*
X-7680157Y-36349959D01*
X-7636889Y-36349891D01*
X-7585741Y-36349874D01*
X-7539126Y-36349856D01*
X-7495964Y-36349887D01*
G37*
G36*
X-7575128Y-35525917D02*
G01*
X-7362410Y-35527151D01*
X-7342354Y-35538941D01*
X-7329090Y-35547795D01*
X-7306606Y-35569907D01*
X-7289396Y-35598402D01*
X-7287740Y-35602103D01*
X-7285810Y-35607285D01*
X-7284249Y-35613350D01*
X-7283018Y-35621160D01*
X-7282079Y-35631576D01*
X-7281391Y-35645459D01*
X-7280917Y-35663672D01*
X-7280616Y-35687075D01*
X-7280449Y-35716530D01*
X-7280378Y-35752898D01*
X-7280363Y-35797042D01*
X-7280364Y-35808613D01*
X-7280402Y-35851061D01*
X-7280518Y-35885954D01*
X-7280750Y-35914164D01*
X-7281133Y-35936560D01*
X-7281701Y-35954012D01*
X-7282492Y-35967392D01*
X-7283541Y-35977569D01*
X-7284884Y-35985413D01*
X-7286556Y-35991796D01*
X-7288593Y-35997588D01*
X-7297313Y-36014888D01*
X-7312647Y-36035627D01*
X-7330833Y-36053338D01*
X-7349455Y-36065331D01*
X-7350297Y-36065708D01*
X-7354840Y-36067448D01*
X-7360363Y-36068899D01*
X-7367631Y-36070087D01*
X-7377409Y-36071038D01*
X-7390465Y-36071779D01*
X-7407562Y-36072337D01*
X-7429467Y-36072737D01*
X-7456946Y-36073006D01*
X-7490765Y-36073170D01*
X-7531688Y-36073257D01*
X-7580482Y-36073292D01*
X-7630856Y-36073231D01*
X-7681405Y-36072971D01*
X-7723908Y-36072508D01*
X-7758246Y-36071845D01*
X-7784302Y-36070985D01*
X-7801959Y-36069929D01*
X-7811099Y-36068680D01*
X-7822236Y-36064012D01*
X-7839886Y-36051623D01*
X-7856933Y-36034653D01*
X-7871329Y-36015244D01*
X-7881021Y-35995544D01*
X-7881115Y-35995272D01*
X-7883157Y-35988801D01*
X-7884827Y-35981736D01*
X-7886162Y-35973184D01*
X-7887200Y-35962250D01*
X-7887976Y-35948042D01*
X-7888529Y-35929665D01*
X-7888894Y-35906226D01*
X-7889110Y-35876832D01*
X-7889212Y-35840588D01*
X-7889238Y-35796602D01*
X-7889238Y-35621273D01*
X-7874124Y-35591676D01*
X-7870805Y-35585490D01*
X-7852181Y-35559367D01*
X-7830002Y-35540440D01*
X-7804894Y-35529273D01*
X-7798046Y-35528271D01*
X-7781844Y-35527257D01*
X-7757155Y-35526490D01*
X-7724059Y-35525972D01*
X-7682635Y-35525702D01*
X-7632965Y-35525684D01*
X-7575128Y-35525917D01*
G37*
G36*
X-8142779Y-37683271D02*
G01*
X-8126310Y-37694485D01*
X-8111628Y-37709167D01*
X-8111628Y-37855830D01*
X-8111683Y-37879389D01*
X-8111967Y-37914233D01*
X-8112466Y-37946488D01*
X-8113147Y-37974946D01*
X-8113980Y-37998397D01*
X-8114935Y-38015631D01*
X-8115980Y-38025438D01*
X-8117443Y-38032530D01*
X-8129323Y-38068701D01*
X-8147407Y-38098888D01*
X-8171600Y-38122996D01*
X-8201809Y-38140926D01*
X-8237942Y-38152581D01*
X-8256914Y-38155656D01*
X-8284937Y-38157976D01*
X-8314920Y-38158638D01*
X-8343394Y-38157582D01*
X-8366896Y-38154751D01*
X-8377901Y-38152262D01*
X-8409477Y-38140452D01*
X-8438080Y-38123008D01*
X-8461886Y-38101204D01*
X-8479071Y-38076317D01*
X-8482346Y-38069638D01*
X-8487235Y-38058036D01*
X-8491165Y-38045629D01*
X-8494226Y-38031438D01*
X-8496509Y-38014486D01*
X-8498101Y-37993793D01*
X-8499092Y-37968382D01*
X-8499571Y-37937273D01*
X-8499628Y-37899488D01*
X-8499352Y-37854049D01*
X-8498112Y-37704995D01*
X-8484010Y-37692399D01*
X-8475791Y-37686336D01*
X-8458162Y-37680106D01*
X-8440553Y-37681502D01*
X-8424824Y-37690174D01*
X-8412833Y-37705772D01*
X-8411525Y-37708630D01*
X-8409672Y-37714241D01*
X-8408221Y-37721687D01*
X-8407124Y-37731939D01*
X-8406333Y-37745970D01*
X-8405800Y-37764750D01*
X-8405479Y-37789252D01*
X-8405320Y-37820447D01*
X-8405277Y-37859306D01*
X-8405229Y-37891247D01*
X-8404948Y-37928798D01*
X-8404304Y-37959354D01*
X-8403168Y-37983867D01*
X-8401415Y-38003292D01*
X-8398918Y-38018582D01*
X-8395551Y-38030689D01*
X-8391186Y-38040567D01*
X-8385698Y-38049169D01*
X-8378959Y-38057448D01*
X-8368395Y-38067393D01*
X-8351636Y-38076509D01*
X-8330237Y-38081420D01*
X-8302483Y-38082692D01*
X-8274338Y-38080186D01*
X-8251039Y-38072617D01*
X-8233168Y-38059501D01*
X-8219754Y-38040341D01*
X-8208789Y-38019052D01*
X-8206630Y-37865621D01*
X-8206549Y-37859938D01*
X-8205943Y-37820030D01*
X-8205341Y-37787756D01*
X-8204693Y-37762229D01*
X-8203944Y-37742559D01*
X-8203043Y-37727858D01*
X-8201936Y-37717239D01*
X-8200570Y-37709811D01*
X-8198894Y-37704688D01*
X-8196853Y-37700980D01*
X-8193035Y-37695988D01*
X-8177955Y-37684189D01*
X-8160598Y-37679895D01*
X-8142779Y-37683271D01*
G37*
G36*
X-6917671Y-37685853D02*
G01*
X-6879163Y-37699040D01*
X-6843816Y-37719314D01*
X-6812777Y-37746479D01*
X-6793243Y-37769921D01*
X-6774159Y-37801342D01*
X-6761161Y-37835779D01*
X-6753737Y-37874673D01*
X-6751377Y-37919466D01*
X-6751976Y-37942174D01*
X-6757590Y-37987658D01*
X-6769365Y-38027957D01*
X-6787606Y-38063960D01*
X-6812622Y-38096557D01*
X-6813731Y-38097763D01*
X-6840269Y-38122129D01*
X-6869026Y-38139463D01*
X-6902516Y-38151295D01*
X-6918865Y-38154909D01*
X-6959349Y-38158990D01*
X-7000464Y-38156986D01*
X-7039757Y-38149121D01*
X-7074775Y-38135618D01*
X-7079839Y-38132912D01*
X-7102244Y-38117394D01*
X-7121965Y-38098169D01*
X-7138401Y-38076508D01*
X-7150950Y-38053683D01*
X-7159009Y-38030967D01*
X-7161976Y-38009632D01*
X-7159249Y-37990950D01*
X-7150227Y-37976192D01*
X-7149940Y-37975909D01*
X-7135158Y-37967015D01*
X-7117631Y-37964697D01*
X-7100636Y-37969404D01*
X-7099765Y-37969974D01*
X-7093486Y-37977183D01*
X-7085691Y-37989641D01*
X-7077862Y-38005030D01*
X-7075417Y-38010261D01*
X-7059533Y-38038516D01*
X-7042079Y-38059066D01*
X-7021930Y-38072716D01*
X-6997960Y-38080267D01*
X-6969040Y-38082521D01*
X-6961095Y-38082299D01*
X-6929462Y-38076957D01*
X-6902746Y-38064642D01*
X-6881078Y-38045544D01*
X-6864589Y-38019857D01*
X-6853412Y-37987770D01*
X-6847676Y-37949477D01*
X-6847515Y-37905169D01*
X-6850219Y-37877281D01*
X-6857654Y-37843970D01*
X-6869738Y-37816241D01*
X-6886905Y-37792856D01*
X-6902613Y-37777880D01*
X-6921848Y-37765993D01*
X-6944013Y-37759601D01*
X-6971608Y-37757667D01*
X-6972569Y-37757667D01*
X-6997750Y-37759514D01*
X-7018681Y-37765606D01*
X-7037018Y-37776957D01*
X-7054417Y-37794582D01*
X-7072535Y-37819495D01*
X-7079363Y-37829556D01*
X-7089709Y-37843656D01*
X-7098195Y-37853866D01*
X-7103460Y-37858469D01*
X-7115857Y-37861241D01*
X-7133027Y-37858935D01*
X-7147642Y-37850336D01*
X-7157793Y-37836730D01*
X-7161569Y-37819399D01*
X-7160928Y-37810485D01*
X-7153978Y-37786575D01*
X-7140311Y-37762375D01*
X-7121075Y-37739355D01*
X-7097421Y-37718988D01*
X-7070497Y-37702745D01*
X-7040705Y-37690752D01*
X-6999588Y-37681515D01*
X-6958195Y-37679946D01*
X-6917671Y-37685853D01*
G37*
G36*
X-5646549Y-37681243D02*
G01*
X-5607265Y-37688309D01*
X-5569869Y-37702104D01*
X-5535585Y-37722587D01*
X-5505638Y-37749719D01*
X-5490691Y-37768585D01*
X-5471151Y-37803022D01*
X-5457503Y-37840964D01*
X-5449623Y-37881221D01*
X-5447385Y-37922603D01*
X-5450664Y-37963921D01*
X-5459335Y-38003985D01*
X-5473273Y-38041605D01*
X-5492353Y-38075592D01*
X-5516448Y-38104756D01*
X-5545436Y-38127907D01*
X-5566459Y-38139016D01*
X-5593710Y-38149526D01*
X-5619993Y-38156146D01*
X-5634574Y-38157705D01*
X-5656599Y-38158458D01*
X-5680543Y-38158102D01*
X-5702904Y-38156700D01*
X-5720180Y-38154317D01*
X-5739205Y-38149214D01*
X-5771403Y-38135259D01*
X-5800107Y-38116085D01*
X-5824289Y-38092767D01*
X-5842921Y-38066381D01*
X-5854974Y-38038001D01*
X-5859421Y-38008704D01*
X-5859426Y-38003467D01*
X-5858391Y-37991016D01*
X-5854828Y-37982730D01*
X-5847540Y-37975237D01*
X-5838765Y-37969392D01*
X-5822589Y-37964775D01*
X-5806717Y-37966473D01*
X-5793902Y-37974524D01*
X-5787816Y-37982973D01*
X-5779910Y-37996651D01*
X-5772127Y-38012309D01*
X-5762918Y-38030050D01*
X-5744868Y-38053853D01*
X-5723090Y-38070195D01*
X-5696815Y-38079579D01*
X-5665274Y-38082512D01*
X-5636092Y-38079648D01*
X-5608161Y-38069873D01*
X-5585214Y-38053110D01*
X-5567203Y-38029310D01*
X-5554078Y-37998423D01*
X-5545791Y-37960399D01*
X-5543714Y-37939966D01*
X-5544014Y-37902052D01*
X-5549452Y-37865960D01*
X-5559628Y-37833204D01*
X-5574138Y-37805301D01*
X-5592583Y-37783763D01*
X-5601537Y-37776611D01*
X-5623552Y-37764768D01*
X-5649122Y-37758820D01*
X-5680043Y-37758242D01*
X-5699776Y-37760654D01*
X-5718888Y-37766996D01*
X-5735840Y-37778223D01*
X-5752245Y-37795442D01*
X-5769720Y-37819762D01*
X-5776145Y-37829478D01*
X-5786396Y-37844176D01*
X-5794317Y-37853430D01*
X-5801411Y-37858498D01*
X-5809179Y-37860637D01*
X-5819123Y-37861104D01*
X-5833860Y-37858666D01*
X-5846493Y-37850211D01*
X-5854257Y-37836870D01*
X-5857146Y-37819856D01*
X-5855152Y-37800383D01*
X-5848270Y-37779664D01*
X-5836491Y-37758913D01*
X-5819810Y-37739342D01*
X-5798083Y-37721083D01*
X-5763489Y-37700827D01*
X-5725885Y-37687462D01*
X-5686497Y-37680948D01*
X-5646549Y-37681243D01*
G37*
G36*
X-5952752Y-37998133D02*
G01*
X-5942217Y-38025163D01*
X-5933661Y-38047206D01*
X-5926890Y-38064760D01*
X-5921710Y-38078320D01*
X-5917929Y-38088383D01*
X-5915354Y-38095447D01*
X-5913790Y-38100007D01*
X-5911302Y-38117802D01*
X-5916519Y-38135487D01*
X-5929915Y-38150639D01*
X-5938263Y-38155605D01*
X-5954795Y-38159293D01*
X-5971240Y-38156836D01*
X-5984480Y-38148363D01*
X-5989167Y-38141519D01*
X-5996387Y-38127851D01*
X-6004590Y-38109996D01*
X-6012750Y-38090067D01*
X-6031042Y-38042537D01*
X-6124907Y-38042537D01*
X-6218773Y-38042537D01*
X-6237349Y-38090137D01*
X-6240296Y-38097564D01*
X-6251271Y-38122354D01*
X-6261540Y-38139921D01*
X-6271948Y-38151249D01*
X-6283341Y-38157324D01*
X-6296563Y-38159130D01*
X-6303464Y-38158603D01*
X-6314786Y-38154188D01*
X-6327008Y-38143899D01*
X-6330897Y-38139928D01*
X-6338139Y-38130849D01*
X-6340735Y-38122263D01*
X-6340154Y-38110433D01*
X-6340033Y-38109683D01*
X-6337482Y-38100899D01*
X-6332067Y-38085304D01*
X-6324187Y-38063887D01*
X-6314236Y-38037637D01*
X-6302613Y-38007544D01*
X-6289714Y-37974596D01*
X-6286225Y-37965781D01*
X-6190003Y-37965781D01*
X-6188654Y-37966450D01*
X-6180328Y-37967510D01*
X-6165673Y-37968359D01*
X-6146158Y-37968922D01*
X-6123254Y-37969126D01*
X-6056504Y-37969126D01*
X-6076175Y-37914068D01*
X-6084414Y-37890962D01*
X-6093688Y-37864871D01*
X-6102325Y-37840497D01*
X-6109186Y-37821047D01*
X-6111907Y-37813520D01*
X-6118155Y-37798200D01*
X-6122881Y-37789690D01*
X-6125697Y-37788749D01*
X-6127917Y-37793890D01*
X-6132527Y-37805733D01*
X-6138912Y-37822671D01*
X-6146540Y-37843240D01*
X-6154877Y-37865974D01*
X-6163392Y-37889407D01*
X-6171552Y-37912075D01*
X-6178826Y-37932512D01*
X-6184681Y-37949252D01*
X-6188584Y-37960830D01*
X-6190003Y-37965781D01*
X-6286225Y-37965781D01*
X-6275935Y-37939783D01*
X-6261673Y-37904093D01*
X-6247326Y-37868515D01*
X-6233289Y-37834040D01*
X-6219960Y-37801655D01*
X-6207735Y-37772350D01*
X-6197011Y-37747115D01*
X-6188185Y-37726937D01*
X-6181654Y-37712806D01*
X-6177813Y-37705712D01*
X-6173840Y-37700920D01*
X-6157016Y-37688459D01*
X-6136449Y-37681436D01*
X-6114870Y-37680495D01*
X-6095010Y-37686276D01*
X-6091389Y-37688329D01*
X-6079588Y-37698103D01*
X-6068502Y-37712829D01*
X-6057357Y-37733685D01*
X-6045382Y-37761850D01*
X-6041864Y-37770808D01*
X-6018539Y-37830219D01*
X-5998158Y-37882160D01*
X-5980529Y-37927128D01*
X-5965458Y-37965621D01*
X-5964088Y-37969126D01*
X-5952752Y-37998133D01*
G37*
G36*
X-7816753Y-37681223D02*
G01*
X-7781462Y-37687450D01*
X-7748981Y-37698330D01*
X-7720925Y-37713644D01*
X-7698910Y-37733172D01*
X-7695641Y-37737183D01*
X-7680940Y-37762484D01*
X-7673054Y-37790467D01*
X-7671887Y-37819423D01*
X-7677348Y-37847645D01*
X-7689342Y-37873424D01*
X-7707776Y-37895053D01*
X-7711309Y-37898065D01*
X-7726515Y-37909082D01*
X-7744560Y-37918963D01*
X-7766868Y-37928325D01*
X-7794862Y-37937784D01*
X-7829966Y-37947956D01*
X-7835782Y-37949558D01*
X-7863808Y-37957590D01*
X-7884965Y-37964424D01*
X-7900571Y-37970652D01*
X-7911947Y-37976868D01*
X-7920413Y-37983664D01*
X-7927291Y-37991632D01*
X-7932610Y-38001785D01*
X-7936054Y-38020021D01*
X-7934297Y-38038866D01*
X-7927336Y-38054577D01*
X-7923469Y-38059261D01*
X-7905247Y-38073584D01*
X-7882142Y-38083393D01*
X-7856252Y-38088430D01*
X-7829672Y-38088437D01*
X-7804500Y-38083157D01*
X-7782832Y-38072331D01*
X-7781870Y-38071596D01*
X-7773226Y-38062143D01*
X-7763124Y-38047338D01*
X-7753173Y-38029503D01*
X-7750293Y-38023941D01*
X-7741266Y-38008244D01*
X-7732816Y-37995792D01*
X-7726458Y-37988884D01*
X-7723637Y-37987078D01*
X-7707142Y-37982012D01*
X-7690138Y-37984827D01*
X-7674573Y-37995282D01*
X-7669181Y-38000942D01*
X-7664235Y-38008516D01*
X-7662777Y-38017493D01*
X-7663741Y-38031436D01*
X-7668617Y-38055045D01*
X-7681912Y-38083182D01*
X-7703439Y-38109583D01*
X-7723810Y-38127014D01*
X-7750395Y-38141979D01*
X-7782405Y-38152402D01*
X-7790066Y-38154023D01*
X-7816271Y-38157335D01*
X-7845889Y-38158617D01*
X-7875210Y-38157793D01*
X-7900524Y-38154789D01*
X-7904680Y-38153955D01*
X-7936117Y-38143942D01*
X-7965203Y-38128459D01*
X-7990373Y-38108704D01*
X-8010063Y-38085876D01*
X-8022707Y-38061174D01*
X-8027304Y-38040789D01*
X-8029319Y-38015340D01*
X-8028393Y-37989745D01*
X-8024448Y-37968108D01*
X-8023973Y-37966612D01*
X-8014406Y-37947968D01*
X-7998961Y-37928946D01*
X-7979751Y-37911783D01*
X-7958886Y-37898715D01*
X-7958780Y-37898663D01*
X-7945069Y-37892890D01*
X-7925594Y-37885880D01*
X-7902934Y-37878512D01*
X-7879667Y-37871667D01*
X-7878237Y-37871271D01*
X-7855673Y-37864886D01*
X-7834488Y-37858679D01*
X-7817001Y-37853339D01*
X-7805532Y-37849560D01*
X-7787640Y-37841324D01*
X-7771098Y-37828295D01*
X-7761829Y-37813603D01*
X-7759480Y-37798293D01*
X-7763703Y-37783407D01*
X-7774146Y-37769991D01*
X-7790459Y-37759086D01*
X-7812292Y-37751738D01*
X-7839294Y-37748990D01*
X-7863913Y-37750776D01*
X-7885214Y-37757613D01*
X-7902473Y-37770495D01*
X-7917521Y-37790392D01*
X-7920069Y-37794530D01*
X-7931777Y-37812745D01*
X-7940900Y-37824796D01*
X-7948713Y-37831900D01*
X-7956492Y-37835270D01*
X-7965512Y-37836124D01*
X-7982649Y-37833938D01*
X-7996793Y-37825726D01*
X-8006441Y-37810715D01*
X-8009916Y-37797562D01*
X-8008709Y-37776568D01*
X-8000483Y-37755092D01*
X-7985975Y-37734380D01*
X-7965920Y-37715676D01*
X-7941057Y-37700227D01*
X-7923314Y-37692662D01*
X-7889295Y-37683609D01*
X-7853235Y-37679870D01*
X-7816753Y-37681223D01*
G37*
G36*
X-5448180Y-34249625D02*
G01*
X-5448028Y-34300942D01*
X-5447893Y-34357396D01*
X-5447775Y-34419235D01*
X-5447672Y-34486711D01*
X-5447584Y-34560072D01*
X-5447509Y-34639569D01*
X-5447446Y-34725452D01*
X-5447395Y-34817971D01*
X-5447353Y-34917376D01*
X-5447321Y-35023918D01*
X-5447297Y-35137845D01*
X-5447280Y-35259409D01*
X-5447270Y-35388860D01*
X-5447264Y-35526446D01*
X-5447263Y-35581988D01*
X-5447262Y-35672420D01*
X-5447262Y-35732328D01*
X-5447263Y-35874375D01*
X-5447266Y-36008141D01*
X-5447272Y-36133877D01*
X-5447280Y-36222390D01*
X-5447283Y-36251836D01*
X-5447300Y-36362270D01*
X-5447323Y-36465431D01*
X-5447355Y-36561573D01*
X-5447397Y-36650947D01*
X-5447449Y-36733806D01*
X-5447463Y-36751081D01*
X-5447513Y-36810402D01*
X-5447590Y-36880988D01*
X-5447682Y-36945815D01*
X-5447789Y-37005137D01*
X-5447913Y-37059206D01*
X-5448056Y-37108274D01*
X-5448218Y-37152593D01*
X-5448400Y-37192416D01*
X-5448605Y-37227996D01*
X-5448832Y-37259584D01*
X-5449084Y-37287434D01*
X-5449361Y-37311797D01*
X-5449665Y-37332926D01*
X-5449998Y-37351073D01*
X-5450359Y-37366491D01*
X-5450751Y-37379432D01*
X-5451175Y-37390148D01*
X-5451632Y-37398892D01*
X-5452123Y-37405917D01*
X-5452650Y-37411474D01*
X-5453213Y-37415816D01*
X-5453814Y-37419196D01*
X-5454454Y-37421865D01*
X-5455135Y-37424077D01*
X-5455858Y-37426083D01*
X-5460029Y-37435524D01*
X-5475688Y-37458823D01*
X-5496689Y-37479067D01*
X-5520673Y-37493793D01*
X-5521620Y-37494217D01*
X-5523515Y-37494998D01*
X-5525726Y-37495729D01*
X-5528528Y-37496411D01*
X-5532201Y-37497046D01*
X-5537022Y-37497636D01*
X-5543267Y-37498182D01*
X-5551214Y-37498687D01*
X-5561141Y-37499151D01*
X-5573324Y-37499576D01*
X-5588042Y-37499965D01*
X-5605572Y-37500318D01*
X-5626190Y-37500638D01*
X-5650175Y-37500926D01*
X-5677804Y-37501183D01*
X-5709354Y-37501413D01*
X-5745102Y-37501615D01*
X-5785327Y-37501792D01*
X-5830304Y-37501946D01*
X-5880313Y-37502077D01*
X-5935629Y-37502189D01*
X-5996531Y-37502282D01*
X-6063295Y-37502358D01*
X-6136200Y-37502419D01*
X-6215522Y-37502467D01*
X-6301539Y-37502503D01*
X-6394528Y-37502529D01*
X-6494767Y-37502546D01*
X-6602533Y-37502557D01*
X-6718104Y-37502562D01*
X-6841756Y-37502564D01*
X-6973767Y-37502565D01*
X-7043109Y-37502564D01*
X-7170762Y-37502563D01*
X-7290199Y-37502560D01*
X-7401698Y-37502552D01*
X-7505536Y-37502538D01*
X-7601991Y-37502517D01*
X-7691339Y-37502486D01*
X-7773859Y-37502444D01*
X-7849827Y-37502390D01*
X-7919521Y-37502321D01*
X-7983218Y-37502236D01*
X-8041196Y-37502134D01*
X-8093733Y-37502012D01*
X-8141104Y-37501869D01*
X-8183589Y-37501703D01*
X-8221463Y-37501513D01*
X-8255005Y-37501297D01*
X-8284493Y-37501054D01*
X-8310202Y-37500781D01*
X-8332411Y-37500476D01*
X-8351397Y-37500140D01*
X-8367438Y-37499768D01*
X-8380810Y-37499361D01*
X-8391792Y-37498916D01*
X-8400660Y-37498431D01*
X-8407692Y-37497905D01*
X-8413166Y-37497336D01*
X-8417358Y-37496723D01*
X-8420546Y-37496064D01*
X-8423008Y-37495357D01*
X-8425020Y-37494601D01*
X-8426861Y-37493793D01*
X-8436478Y-37488830D01*
X-8459573Y-37471644D01*
X-8478759Y-37449907D01*
X-8491676Y-37426083D01*
X-8491974Y-37425280D01*
X-8492679Y-37423221D01*
X-8493344Y-37420854D01*
X-8493968Y-37417928D01*
X-8494554Y-37414189D01*
X-8495102Y-37409385D01*
X-8495614Y-37403264D01*
X-8496091Y-37395574D01*
X-8496534Y-37386062D01*
X-8496945Y-37374476D01*
X-8497325Y-37360563D01*
X-8497674Y-37344071D01*
X-8497995Y-37324747D01*
X-8498288Y-37302339D01*
X-8498555Y-37276596D01*
X-8498797Y-37247263D01*
X-8499015Y-37214090D01*
X-8499210Y-37176823D01*
X-8499384Y-37135210D01*
X-8499538Y-37088999D01*
X-8499673Y-37037938D01*
X-8499790Y-36981773D01*
X-8499891Y-36920253D01*
X-8499977Y-36853125D01*
X-8500049Y-36780137D01*
X-8500108Y-36701036D01*
X-8500155Y-36615571D01*
X-8500193Y-36523488D01*
X-8500221Y-36424535D01*
X-8500242Y-36318460D01*
X-8500256Y-36205011D01*
X-8500256Y-36202414D01*
X-8042840Y-36202414D01*
X-8042818Y-36276718D01*
X-8042759Y-36350641D01*
X-8042663Y-36423667D01*
X-8042531Y-36495279D01*
X-8042362Y-36564963D01*
X-8042157Y-36632202D01*
X-8041916Y-36696480D01*
X-8041638Y-36757282D01*
X-8041324Y-36814090D01*
X-8040974Y-36866390D01*
X-8040588Y-36913665D01*
X-8040167Y-36955400D01*
X-8039709Y-36991077D01*
X-8039216Y-37020183D01*
X-8038688Y-37042199D01*
X-8038124Y-37056611D01*
X-8037524Y-37062903D01*
X-8035894Y-37067722D01*
X-8023106Y-37090075D01*
X-8003101Y-37109627D01*
X-7976956Y-37125274D01*
X-7949693Y-37137861D01*
X-7599915Y-37138497D01*
X-7578623Y-37138529D01*
X-7524595Y-37138556D01*
X-7472937Y-37138503D01*
X-7424346Y-37138375D01*
X-7379517Y-37138178D01*
X-7339146Y-37137917D01*
X-7303931Y-37137596D01*
X-7274566Y-37137220D01*
X-7251750Y-37136795D01*
X-7236177Y-37136326D01*
X-7228544Y-37135818D01*
X-7198868Y-37128183D01*
X-7171713Y-37114501D01*
X-7150045Y-37095869D01*
X-7135119Y-37073124D01*
X-7134202Y-37070855D01*
X-7133336Y-37067935D01*
X-7132545Y-37064058D01*
X-7131826Y-37058858D01*
X-7131175Y-37051970D01*
X-7130589Y-37043028D01*
X-7130064Y-37031666D01*
X-7129597Y-37017519D01*
X-7129185Y-37000221D01*
X-7128824Y-36979406D01*
X-7128510Y-36954708D01*
X-7128242Y-36925762D01*
X-7128014Y-36892203D01*
X-7127824Y-36853663D01*
X-7127669Y-36809779D01*
X-7127550Y-36762607D01*
X-6789419Y-36762607D01*
X-6783103Y-36790973D01*
X-6769963Y-36817245D01*
X-6750172Y-36840153D01*
X-6723903Y-36858427D01*
X-6701717Y-36870129D01*
X-6338983Y-36871069D01*
X-6296501Y-36871171D01*
X-6235153Y-36871279D01*
X-6181596Y-36871314D01*
X-6135308Y-36871268D01*
X-6095767Y-36871135D01*
X-6062454Y-36870907D01*
X-6034847Y-36870579D01*
X-6012424Y-36870143D01*
X-5994666Y-36869593D01*
X-5981050Y-36868921D01*
X-5971057Y-36868121D01*
X-5964164Y-36867186D01*
X-5959851Y-36866110D01*
X-5933651Y-36853289D01*
X-5909356Y-36833492D01*
X-5890817Y-36809006D01*
X-5878982Y-36781109D01*
X-5874794Y-36751081D01*
X-5874825Y-36748026D01*
X-5879451Y-36717817D01*
X-5892095Y-36690248D01*
X-5912995Y-36664783D01*
X-5914906Y-36662896D01*
X-5920937Y-36656831D01*
X-5926435Y-36651518D01*
X-5931973Y-36646907D01*
X-5938125Y-36642948D01*
X-5945463Y-36639593D01*
X-5954561Y-36636790D01*
X-5965991Y-36634492D01*
X-5980327Y-36632647D01*
X-5998142Y-36631208D01*
X-6020009Y-36630123D01*
X-6046500Y-36629344D01*
X-6078190Y-36628820D01*
X-6115650Y-36628503D01*
X-6159455Y-36628343D01*
X-6210177Y-36628290D01*
X-6268389Y-36628294D01*
X-6334665Y-36628307D01*
X-6400709Y-36628300D01*
X-6458794Y-36628310D01*
X-6509385Y-36628382D01*
X-6553054Y-36628559D01*
X-6590372Y-36628886D01*
X-6621912Y-36629409D01*
X-6648244Y-36630171D01*
X-6669941Y-36631217D01*
X-6687574Y-36632592D01*
X-6701716Y-36634340D01*
X-6712937Y-36636507D01*
X-6721809Y-36639136D01*
X-6728904Y-36642272D01*
X-6734794Y-36645960D01*
X-6740051Y-36650244D01*
X-6745245Y-36655169D01*
X-6750950Y-36660780D01*
X-6765682Y-36677640D01*
X-6780882Y-36704671D01*
X-6788737Y-36733416D01*
X-6789419Y-36762607D01*
X-7127550Y-36762607D01*
X-7127544Y-36760184D01*
X-7127447Y-36704512D01*
X-7127374Y-36642397D01*
X-7127322Y-36573475D01*
X-7127288Y-36497378D01*
X-7127267Y-36413743D01*
X-7127257Y-36322202D01*
X-7127255Y-36222390D01*
X-7127255Y-36206771D01*
X-7127258Y-36108275D01*
X-7127268Y-36017995D01*
X-7127289Y-35935563D01*
X-7127324Y-35860615D01*
X-7127377Y-35792784D01*
X-7127451Y-35731705D01*
X-7127549Y-35677011D01*
X-7127676Y-35628336D01*
X-7127826Y-35587127D01*
X-6820417Y-35587127D01*
X-6815723Y-35616730D01*
X-6803496Y-35644880D01*
X-6783742Y-35670238D01*
X-6778795Y-35675106D01*
X-6768985Y-35683918D01*
X-6759161Y-35690902D01*
X-6748244Y-35696270D01*
X-6735156Y-35700233D01*
X-6718821Y-35703001D01*
X-6698161Y-35704787D01*
X-6672098Y-35705801D01*
X-6639555Y-35706254D01*
X-6599454Y-35706358D01*
X-6483645Y-35706358D01*
X-6483550Y-35828349D01*
X-6483546Y-35832814D01*
X-6483458Y-35868187D01*
X-6483232Y-35896123D01*
X-6482805Y-35917698D01*
X-6482115Y-35933991D01*
X-6481100Y-35946079D01*
X-6479698Y-35955041D01*
X-6477846Y-35961954D01*
X-6475481Y-35967895D01*
X-6463599Y-35988411D01*
X-6442885Y-36011444D01*
X-6418196Y-36028411D01*
X-6413619Y-36030606D01*
X-6384263Y-36039647D01*
X-6353839Y-36041259D01*
X-6324754Y-36035265D01*
X-6319795Y-36033411D01*
X-6293351Y-36019543D01*
X-6272599Y-36000338D01*
X-6255856Y-35974306D01*
X-6241822Y-35946841D01*
X-6241822Y-35826843D01*
X-6241822Y-35706845D01*
X-6117672Y-35705522D01*
X-6087768Y-35705186D01*
X-6057817Y-35704760D01*
X-6034565Y-35704244D01*
X-6016939Y-35703556D01*
X-6003871Y-35702616D01*
X-5994288Y-35701341D01*
X-5987120Y-35699649D01*
X-5981296Y-35697459D01*
X-5975746Y-35694690D01*
X-5963363Y-35687322D01*
X-5938115Y-35666127D01*
X-5919823Y-35640884D01*
X-5908905Y-35612526D01*
X-5905779Y-35581988D01*
X-5910865Y-35550201D01*
X-5915955Y-35536797D01*
X-5930384Y-35512970D01*
X-5949636Y-35491830D01*
X-5971377Y-35476231D01*
X-5975797Y-35473988D01*
X-5981550Y-35471672D01*
X-5988480Y-35469855D01*
X-5997651Y-35468449D01*
X-6010130Y-35467367D01*
X-6026982Y-35466521D01*
X-6049273Y-35465826D01*
X-6078068Y-35465193D01*
X-6114433Y-35464536D01*
X-6239663Y-35462377D01*
X-6241822Y-35339306D01*
X-6242249Y-35315882D01*
X-6243038Y-35281455D01*
X-6244067Y-35253965D01*
X-6245544Y-35232331D01*
X-6247678Y-35215476D01*
X-6250678Y-35202321D01*
X-6254751Y-35191788D01*
X-6260107Y-35182797D01*
X-6266953Y-35174271D01*
X-6275499Y-35165131D01*
X-6281385Y-35159315D01*
X-6303099Y-35142963D01*
X-6327346Y-35133120D01*
X-6356613Y-35128667D01*
X-6361171Y-35128395D01*
X-6379237Y-35128266D01*
X-6393359Y-35130482D01*
X-6407281Y-35135552D01*
X-6407406Y-35135608D01*
X-6433699Y-35149891D01*
X-6453512Y-35167165D01*
X-6468914Y-35189228D01*
X-6481485Y-35211918D01*
X-6483645Y-35337147D01*
X-6485804Y-35462377D01*
X-6611033Y-35464536D01*
X-6638109Y-35465023D01*
X-6671864Y-35465797D01*
X-6698761Y-35466813D01*
X-6719865Y-35468274D01*
X-6736240Y-35470385D01*
X-6748948Y-35473351D01*
X-6759055Y-35477375D01*
X-6767622Y-35482662D01*
X-6775715Y-35489417D01*
X-6784397Y-35497844D01*
X-6789257Y-35502975D01*
X-6807189Y-35528911D01*
X-6817575Y-35557408D01*
X-6820417Y-35587127D01*
X-7127826Y-35587127D01*
X-7127833Y-35585315D01*
X-7128026Y-35547581D01*
X-7128257Y-35514769D01*
X-7128529Y-35486513D01*
X-7128847Y-35462446D01*
X-7129214Y-35442203D01*
X-7129632Y-35425417D01*
X-7130106Y-35411724D01*
X-7130639Y-35400755D01*
X-7131235Y-35392147D01*
X-7131896Y-35385533D01*
X-7132627Y-35380546D01*
X-7133430Y-35376821D01*
X-7134310Y-35373992D01*
X-7135269Y-35371693D01*
X-7146867Y-35353019D01*
X-7167650Y-35332750D01*
X-7193998Y-35317163D01*
X-7195269Y-35316603D01*
X-7205647Y-35312695D01*
X-7217087Y-35309906D01*
X-7231480Y-35307973D01*
X-7250723Y-35306631D01*
X-7276707Y-35305615D01*
X-7337825Y-35303698D01*
X-7339440Y-35229739D01*
X-7340099Y-35204151D01*
X-7341012Y-35182357D01*
X-7342279Y-35166242D01*
X-7344077Y-35154243D01*
X-7346582Y-35144799D01*
X-7349970Y-35136348D01*
X-7350686Y-35134806D01*
X-7365196Y-35110254D01*
X-7383753Y-35091472D01*
X-7408615Y-35076143D01*
X-7435041Y-35062938D01*
X-7584411Y-35062980D01*
X-7588612Y-35062981D01*
X-7627693Y-35063008D01*
X-7659207Y-35063102D01*
X-7684127Y-35063320D01*
X-7703428Y-35063723D01*
X-7718084Y-35064368D01*
X-7729071Y-35065315D01*
X-7737363Y-35066620D01*
X-7743934Y-35068344D01*
X-7749759Y-35070545D01*
X-7755813Y-35073281D01*
X-7776926Y-35085652D01*
X-7799692Y-35106178D01*
X-7816101Y-35130288D01*
X-7816404Y-35130907D01*
X-7819416Y-35138257D01*
X-7821654Y-35147055D01*
X-7823266Y-35158739D01*
X-7824397Y-35174745D01*
X-7825195Y-35196513D01*
X-7825806Y-35225479D01*
X-7827147Y-35303813D01*
X-7888420Y-35305843D01*
X-7914116Y-35306981D01*
X-7938664Y-35308984D01*
X-7957194Y-35311826D01*
X-7971133Y-35315675D01*
X-7979318Y-35319225D01*
X-7998335Y-35331279D01*
X-8015918Y-35347025D01*
X-8029831Y-35364276D01*
X-8037835Y-35380845D01*
X-8038113Y-35382761D01*
X-8038693Y-35392990D01*
X-8039234Y-35411093D01*
X-8039737Y-35436555D01*
X-8040202Y-35468860D01*
X-8040628Y-35507491D01*
X-8041017Y-35551932D01*
X-8041368Y-35601668D01*
X-8041681Y-35656183D01*
X-8041957Y-35714960D01*
X-8042195Y-35777484D01*
X-8042396Y-35843239D01*
X-8042559Y-35911708D01*
X-8042685Y-35982376D01*
X-8042773Y-36054728D01*
X-8042825Y-36128245D01*
X-8042840Y-36202414D01*
X-8500256Y-36202414D01*
X-8500264Y-36083934D01*
X-8500269Y-35954979D01*
X-8500271Y-35817891D01*
X-8500272Y-35672420D01*
X-8500272Y-35656584D01*
X-8500269Y-35511509D01*
X-8500263Y-35374794D01*
X-8500252Y-35246189D01*
X-8500234Y-35125445D01*
X-8500210Y-35012310D01*
X-8500177Y-34906534D01*
X-8500134Y-34807869D01*
X-8500082Y-34716063D01*
X-8500018Y-34630867D01*
X-8499941Y-34552030D01*
X-8499851Y-34479303D01*
X-8499747Y-34412436D01*
X-8499627Y-34351178D01*
X-8499491Y-34295279D01*
X-8499337Y-34244489D01*
X-8499327Y-34241758D01*
X-8193983Y-34241758D01*
X-8192749Y-34456947D01*
X-8192729Y-34460524D01*
X-8192444Y-34508603D01*
X-8192167Y-34548865D01*
X-8191860Y-34582074D01*
X-8191490Y-34608996D01*
X-8191021Y-34630398D01*
X-8190416Y-34647044D01*
X-8189642Y-34659702D01*
X-8188662Y-34669137D01*
X-8187442Y-34676114D01*
X-8185945Y-34681400D01*
X-8184136Y-34685761D01*
X-8181980Y-34689962D01*
X-8172112Y-34704670D01*
X-8154222Y-34723430D01*
X-8133452Y-34739240D01*
X-8112779Y-34749540D01*
X-8110275Y-34750214D01*
X-8106443Y-34750876D01*
X-8101088Y-34751488D01*
X-8093901Y-34752053D01*
X-8084572Y-34752572D01*
X-8072792Y-34753047D01*
X-8058251Y-34753479D01*
X-8040640Y-34753871D01*
X-8019651Y-34754223D01*
X-7994973Y-34754539D01*
X-7966298Y-34754819D01*
X-7933316Y-34755065D01*
X-7895718Y-34755280D01*
X-7853195Y-34755464D01*
X-7805437Y-34755620D01*
X-7752135Y-34755749D01*
X-7692980Y-34755853D01*
X-7627663Y-34755934D01*
X-7555874Y-34755994D01*
X-7477305Y-34756034D01*
X-7391645Y-34756056D01*
X-7298585Y-34756062D01*
X-7197817Y-34756054D01*
X-7089031Y-34756033D01*
X-6971918Y-34756001D01*
X-6965764Y-34755999D01*
X-6848480Y-34755958D01*
X-6739513Y-34755910D01*
X-6638561Y-34755852D01*
X-6545321Y-34755783D01*
X-6459489Y-34755700D01*
X-6380763Y-34755603D01*
X-6308838Y-34755490D01*
X-6243412Y-34755357D01*
X-6184181Y-34755205D01*
X-6130842Y-34755030D01*
X-6083093Y-34754832D01*
X-6040629Y-34754608D01*
X-6003148Y-34754357D01*
X-5970346Y-34754076D01*
X-5941921Y-34753765D01*
X-5917568Y-34753420D01*
X-5896985Y-34753041D01*
X-5879869Y-34752626D01*
X-5865916Y-34752173D01*
X-5854823Y-34751679D01*
X-5846287Y-34751144D01*
X-5840004Y-34750565D01*
X-5835672Y-34749941D01*
X-5832988Y-34749270D01*
X-5815760Y-34740613D01*
X-5796062Y-34725878D01*
X-5778359Y-34708144D01*
X-5765553Y-34689962D01*
X-5765395Y-34689665D01*
X-5763264Y-34685478D01*
X-5761478Y-34681078D01*
X-5760001Y-34675701D01*
X-5758798Y-34668581D01*
X-5757833Y-34658951D01*
X-5757071Y-34646046D01*
X-5756477Y-34629100D01*
X-5756016Y-34607347D01*
X-5755651Y-34580021D01*
X-5755348Y-34546356D01*
X-5755071Y-34505587D01*
X-5754784Y-34456947D01*
X-5753551Y-34241758D01*
X-5763824Y-34219442D01*
X-5775372Y-34199206D01*
X-5797128Y-34175501D01*
X-5825110Y-34157776D01*
X-5846701Y-34147551D01*
X-6973767Y-34147551D01*
X-8100833Y-34147551D01*
X-8122514Y-34157648D01*
X-8143089Y-34169570D01*
X-8166479Y-34191446D01*
X-8183755Y-34219416D01*
X-8193983Y-34241758D01*
X-8499327Y-34241758D01*
X-8499165Y-34198559D01*
X-8498972Y-34157238D01*
X-8498760Y-34120276D01*
X-8498525Y-34087423D01*
X-8498268Y-34058429D01*
X-8497987Y-34033044D01*
X-8497681Y-34011018D01*
X-8497350Y-33992101D01*
X-8496991Y-33976042D01*
X-8496605Y-33962593D01*
X-8496190Y-33951502D01*
X-8495745Y-33942519D01*
X-8495268Y-33935395D01*
X-8494760Y-33929880D01*
X-8494219Y-33925723D01*
X-8493643Y-33922675D01*
X-8493033Y-33920485D01*
X-8491728Y-33916979D01*
X-8479755Y-33895817D01*
X-8462265Y-33875631D01*
X-8441739Y-33858901D01*
X-8420657Y-33848109D01*
X-8420476Y-33848048D01*
X-8418030Y-33847381D01*
X-8414681Y-33846757D01*
X-8410153Y-33846173D01*
X-8404171Y-33845629D01*
X-8396456Y-33845123D01*
X-8386734Y-33844654D01*
X-8374729Y-33844221D01*
X-8360163Y-33843822D01*
X-8342761Y-33843455D01*
X-8322247Y-33843120D01*
X-8298344Y-33842815D01*
X-8270777Y-33842538D01*
X-8239268Y-33842289D01*
X-8203542Y-33842065D01*
X-8163323Y-33841866D01*
X-8118334Y-33841690D01*
X-8068299Y-33841536D01*
X-8012942Y-33841402D01*
X-7951987Y-33841286D01*
X-7885158Y-33841189D01*
X-7812177Y-33841107D01*
X-7732770Y-33841040D01*
X-7646660Y-33840987D01*
X-7553571Y-33840946D01*
X-7453226Y-33840915D01*
X-7345349Y-33840893D01*
X-7229665Y-33840880D01*
X-7105896Y-33840873D01*
X-6973767Y-33840871D01*
X-6961784Y-33840871D01*
X-6830403Y-33840873D01*
X-6707358Y-33840881D01*
X-6592372Y-33840895D01*
X-6485170Y-33840917D01*
X-6385475Y-33840949D01*
X-6293012Y-33840991D01*
X-6207503Y-33841046D01*
X-6128673Y-33841114D01*
X-6056246Y-33841197D01*
X-5989945Y-33841296D01*
X-5929494Y-33841413D01*
X-5874617Y-33841549D01*
X-5825038Y-33841705D01*
X-5780480Y-33841883D01*
X-5740668Y-33842084D01*
X-5705325Y-33842310D01*
X-5674174Y-33842562D01*
X-5646941Y-33842841D01*
X-5623348Y-33843148D01*
X-5603119Y-33843486D01*
X-5585978Y-33843856D01*
X-5571649Y-33844258D01*
X-5559855Y-33844694D01*
X-5550321Y-33845166D01*
X-5542771Y-33845675D01*
X-5536927Y-33846223D01*
X-5532514Y-33846810D01*
X-5529256Y-33847438D01*
X-5526876Y-33848109D01*
X-5523371Y-33849414D01*
X-5502209Y-33861387D01*
X-5482023Y-33878877D01*
X-5465293Y-33899403D01*
X-5454501Y-33920485D01*
X-5454435Y-33920683D01*
X-5453828Y-33922952D01*
X-5453256Y-33926106D01*
X-5452719Y-33930395D01*
X-5452214Y-33936068D01*
X-5451741Y-33943377D01*
X-5451299Y-33952570D01*
X-5450887Y-33963899D01*
X-5450503Y-33977612D01*
X-5450148Y-33993961D01*
X-5449819Y-34013195D01*
X-5449516Y-34035565D01*
X-5449238Y-34061319D01*
X-5448983Y-34090709D01*
X-5448751Y-34123985D01*
X-5448540Y-34161396D01*
X-5448350Y-34203192D01*
X-5448209Y-34241758D01*
X-5448180Y-34249625D01*
G37*
%TD*%
M02*
