%TF.GenerationSoftware,KiCad,Pcbnew,8.0.8*%
%TF.CreationDate,2025-01-17T20:21:58+11:00*%
%TF.ProjectId,ti59_keyboard,74693539-5f6b-4657-9962-6f6172642e6b,1*%
%TF.SameCoordinates,Original*%
%TF.FileFunction,Soldermask,Top*%
%TF.FilePolarity,Negative*%
%FSLAX46Y46*%
G04 Gerber Fmt 4.6, Leading zero omitted, Abs format (unit mm)*
G04 Created by KiCad (PCBNEW 8.0.8) date 2025-01-17 20:21:58*
%MOMM*%
%LPD*%
G01*
G04 APERTURE LIST*
G04 Aperture macros list*
%AMRoundRect*
0 Rectangle with rounded corners*
0 $1 Rounding radius*
0 $2 $3 $4 $5 $6 $7 $8 $9 X,Y pos of 4 corners*
0 Add a 4 corners polygon primitive as box body*
4,1,4,$2,$3,$4,$5,$6,$7,$8,$9,$2,$3,0*
0 Add four circle primitives for the rounded corners*
1,1,$1+$1,$2,$3*
1,1,$1+$1,$4,$5*
1,1,$1+$1,$6,$7*
1,1,$1+$1,$8,$9*
0 Add four rect primitives between the rounded corners*
20,1,$1+$1,$2,$3,$4,$5,0*
20,1,$1+$1,$4,$5,$6,$7,0*
20,1,$1+$1,$6,$7,$8,$9,0*
20,1,$1+$1,$8,$9,$2,$3,0*%
G04 Aperture macros list end*
%ADD10RoundRect,0.200000X-0.700000X-0.350000X0.700000X-0.350000X0.700000X0.350000X-0.700000X0.350000X0*%
%ADD11RoundRect,0.250000X-0.675000X-0.675000X0.675000X-0.675000X0.675000X0.675000X-0.675000X0.675000X0*%
G04 APERTURE END LIST*
D10*
%TO.C,SW1*%
X-28400000Y-15500000D03*
X-22400000Y-15500000D03*
X-28400000Y-19200000D03*
X-22400000Y-19200000D03*
%TD*%
%TO.C,SW27*%
X-15700000Y-66300000D03*
X-9700000Y-66300000D03*
X-15700000Y-70000000D03*
X-9700000Y-70000000D03*
%TD*%
%TO.C,SW7*%
X-15700000Y-25660000D03*
X-9700000Y-25660000D03*
X-15700000Y-29360000D03*
X-9700000Y-29360000D03*
%TD*%
%TO.C,SW34*%
X9700000Y-76460000D03*
X15700000Y-76460000D03*
X9700000Y-80160000D03*
X15700000Y-80160000D03*
%TD*%
D11*
%TO.C,J12*%
X20320000Y-2110000D03*
%TD*%
D10*
%TO.C,SW44*%
X9700000Y-5340000D03*
X15700000Y-5340000D03*
X9700000Y-9040000D03*
X15700000Y-9040000D03*
%TD*%
D11*
%TO.C,J4*%
X-12700000Y-2110000D03*
%TD*%
D10*
%TO.C,SW6*%
X-28400000Y-25660000D03*
X-22400000Y-25660000D03*
X-28400000Y-29360000D03*
X-22400000Y-29360000D03*
%TD*%
D11*
%TO.C,J13*%
X25400000Y-2110000D03*
%TD*%
D10*
%TO.C,SW33*%
X-3000000Y-76460000D03*
X3000000Y-76460000D03*
X-3000000Y-80160000D03*
X3000000Y-80160000D03*
%TD*%
D11*
%TO.C,J7*%
X0Y-2110000D03*
%TD*%
%TO.C,J8*%
X5080000Y-2110000D03*
%TD*%
%TO.C,J2*%
X-20320000Y-2110000D03*
%TD*%
D10*
%TO.C,SW17*%
X-15700000Y-45980000D03*
X-9700000Y-45980000D03*
X-15700000Y-49680000D03*
X-9700000Y-49680000D03*
%TD*%
%TO.C,SW2*%
X-15700000Y-15500000D03*
X-9700000Y-15500000D03*
X-15700000Y-19200000D03*
X-9700000Y-19200000D03*
%TD*%
D11*
%TO.C,J10*%
X12700000Y-2110000D03*
%TD*%
%TO.C,J3*%
X-17780000Y-2110000D03*
%TD*%
D10*
%TO.C,SW28*%
X-3000000Y-66300000D03*
X3000000Y-66300000D03*
X-3000000Y-70000000D03*
X3000000Y-70000000D03*
%TD*%
%TO.C,SW19*%
X9700000Y-45980000D03*
X15700000Y-45980000D03*
X9700000Y-49680000D03*
X15700000Y-49680000D03*
%TD*%
%TO.C,SW8*%
X-3000000Y-25660000D03*
X3000000Y-25660000D03*
X-3000000Y-29360000D03*
X3000000Y-29360000D03*
%TD*%
%TO.C,SW40*%
X22400000Y-86620000D03*
X28400000Y-86620000D03*
X22400000Y-90320000D03*
X28400000Y-90320000D03*
%TD*%
%TO.C,SW39*%
X9700000Y-86620000D03*
X15700000Y-86620000D03*
X9700000Y-90320000D03*
X15700000Y-90320000D03*
%TD*%
%TO.C,SW20*%
X22400000Y-45980000D03*
X28400000Y-45980000D03*
X22400000Y-49680000D03*
X28400000Y-49680000D03*
%TD*%
D11*
%TO.C,J6*%
X-5080000Y-2110000D03*
%TD*%
D10*
%TO.C,SW26*%
X-28400000Y-66300000D03*
X-22400000Y-66300000D03*
X-28400000Y-70000000D03*
X-22400000Y-70000000D03*
%TD*%
%TO.C,SW45*%
X22400000Y-5340000D03*
X28400000Y-5340000D03*
X22400000Y-9040000D03*
X28400000Y-9040000D03*
%TD*%
%TO.C,SW5*%
X22400000Y-15500000D03*
X28400000Y-15500000D03*
X22400000Y-19200000D03*
X28400000Y-19200000D03*
%TD*%
D11*
%TO.C,J11*%
X17780000Y-2110000D03*
%TD*%
D10*
%TO.C,SW15*%
X22400000Y-35820000D03*
X28400000Y-35820000D03*
X22400000Y-39520000D03*
X28400000Y-39520000D03*
%TD*%
D11*
%TO.C,J14*%
X30480000Y-2110000D03*
%TD*%
D10*
%TO.C,SW4*%
X9700000Y-15500000D03*
X15700000Y-15500000D03*
X9700000Y-19200000D03*
X15700000Y-19200000D03*
%TD*%
%TO.C,SW37*%
X-15700000Y-86620000D03*
X-9700000Y-86620000D03*
X-15700000Y-90320000D03*
X-9700000Y-90320000D03*
%TD*%
%TO.C,SW21*%
X-28400000Y-56140000D03*
X-22400000Y-56140000D03*
X-28400000Y-59840000D03*
X-22400000Y-59840000D03*
%TD*%
%TO.C,SW16*%
X-28400000Y-45980000D03*
X-22400000Y-45980000D03*
X-28400000Y-49680000D03*
X-22400000Y-49680000D03*
%TD*%
%TO.C,SW43*%
X-3000000Y-5340000D03*
X3000000Y-5340000D03*
X-3000000Y-9040000D03*
X3000000Y-9040000D03*
%TD*%
D11*
%TO.C,J5*%
X-7620000Y-2110000D03*
%TD*%
D10*
%TO.C,SW3*%
X-3000000Y-15500000D03*
X3000000Y-15500000D03*
X-3000000Y-19200000D03*
X3000000Y-19200000D03*
%TD*%
%TO.C,SW35*%
X22400000Y-76460000D03*
X28400000Y-76460000D03*
X22400000Y-80160000D03*
X28400000Y-80160000D03*
%TD*%
%TO.C,SW32*%
X-15700000Y-76460000D03*
X-9700000Y-76460000D03*
X-15700000Y-80160000D03*
X-9700000Y-80160000D03*
%TD*%
%TO.C,SW41*%
X-28400000Y-5340000D03*
X-22400000Y-5340000D03*
X-28400000Y-9040000D03*
X-22400000Y-9040000D03*
%TD*%
%TO.C,SW12*%
X-15700000Y-35820000D03*
X-9700000Y-35820000D03*
X-15700000Y-39520000D03*
X-9700000Y-39520000D03*
%TD*%
%TO.C,SW14*%
X9700000Y-35820000D03*
X15700000Y-35820000D03*
X9700000Y-39520000D03*
X15700000Y-39520000D03*
%TD*%
%TO.C,SW24*%
X9700000Y-56140000D03*
X15700000Y-56140000D03*
X9700000Y-59840000D03*
X15700000Y-59840000D03*
%TD*%
D11*
%TO.C,J9*%
X7620000Y-2110000D03*
%TD*%
D10*
%TO.C,SW9*%
X9700000Y-25660000D03*
X15700000Y-25660000D03*
X9700000Y-29360000D03*
X15700000Y-29360000D03*
%TD*%
%TO.C,SW29*%
X9700000Y-66300000D03*
X15700000Y-66300000D03*
X9700000Y-70000000D03*
X15700000Y-70000000D03*
%TD*%
%TO.C,SW36*%
X-28400000Y-86620000D03*
X-22400000Y-86620000D03*
X-28400000Y-90320000D03*
X-22400000Y-90320000D03*
%TD*%
%TO.C,SW22*%
X-15700000Y-56140000D03*
X-9700000Y-56140000D03*
X-15700000Y-59840000D03*
X-9700000Y-59840000D03*
%TD*%
%TO.C,SW11*%
X-28400000Y-35820000D03*
X-22400000Y-35820000D03*
X-28400000Y-39520000D03*
X-22400000Y-39520000D03*
%TD*%
%TO.C,SW42*%
X-15700000Y-5340000D03*
X-9700000Y-5340000D03*
X-15700000Y-9040000D03*
X-9700000Y-9040000D03*
%TD*%
%TO.C,SW25*%
X22400000Y-56140000D03*
X28400000Y-56140000D03*
X22400000Y-59840000D03*
X28400000Y-59840000D03*
%TD*%
%TO.C,SW13*%
X-3000000Y-35820000D03*
X3000000Y-35820000D03*
X-3000000Y-39520000D03*
X3000000Y-39520000D03*
%TD*%
%TO.C,SW30*%
X22400000Y-66300000D03*
X28400000Y-66300000D03*
X22400000Y-70000000D03*
X28400000Y-70000000D03*
%TD*%
D11*
%TO.C,J1*%
X-25400000Y-2110000D03*
%TD*%
D10*
%TO.C,SW31*%
X-28400000Y-76460000D03*
X-22400000Y-76460000D03*
X-28400000Y-80160000D03*
X-22400000Y-80160000D03*
%TD*%
%TO.C,SW10*%
X22400000Y-25660000D03*
X28400000Y-25660000D03*
X22400000Y-29360000D03*
X28400000Y-29360000D03*
%TD*%
%TO.C,SW38*%
X-3000000Y-86620000D03*
X3000000Y-86620000D03*
X-3000000Y-90320000D03*
X3000000Y-90320000D03*
%TD*%
%TO.C,SW23*%
X-3000000Y-56140000D03*
X3000000Y-56140000D03*
X-3000000Y-59840000D03*
X3000000Y-59840000D03*
%TD*%
%TO.C,SW18*%
X-3000000Y-45980000D03*
X3000000Y-45980000D03*
X-3000000Y-49680000D03*
X3000000Y-49680000D03*
%TD*%
M02*
