M48
; DRILL file {KiCad 8.0.4} date 2024-09-09T09:49:47+1000
; FORMAT={-:-/ absolute / metric / decimal}
; #@! TF.CreationDate,2024-09-09T09:49:47+10:00
; #@! TF.GenerationSoftware,Kicad,Pcbnew,8.0.4
; #@! TF.FileFunction,Plated,1,2,PTH
FMAT,2
METRIC
; #@! TA.AperFunction,Plated,PTH,ViaDrill
T1C0.400
; #@! TA.AperFunction,Plated,PTH,ComponentDrill
T2C0.850
%
G90
G05
T1
X-30.0Y-9.0
X-30.0Y-19.21
X-30.0Y-29.36
X-30.0Y-39.51
X-30.0Y-49.66
X-30.0Y-59.86
X-30.0Y-69.96
X-30.0Y-80.16
X-22.4Y-10.3
X-22.4Y-20.41
X-22.4Y-30.81
X-22.4Y-40.76
X-22.4Y-50.91
X-22.4Y-61.06
X-22.4Y-71.21
X-20.3Y-80.16
X-17.75Y-29.36
X-15.7Y-10.3
X-15.7Y-20.36
X-15.7Y-40.71
X-15.7Y-50.86
X-15.7Y-61.06
X-15.7Y-71.21
X-9.7Y-10.3
X-9.7Y-20.41
X-9.7Y-30.41
X-9.7Y-40.71
X-9.7Y-50.86
X-9.7Y-61.06
X-9.7Y-71.26
X-9.7Y-81.36
X-5.1Y-19.16
X-3.0Y-10.3
X-3.0Y-30.36
X-3.0Y-40.71
X-3.0Y-50.86
X-3.0Y-61.01
X-3.0Y-71.21
X-3.0Y-81.41
X3.0Y-10.3
X3.0Y-20.41
X3.0Y-30.41
X3.0Y-40.71
X5.03Y-49.68
X6.35Y-70.0
X6.35Y-80.16
X6.45Y-59.84
X7.51Y-39.52
X9.7Y-10.3
X9.7Y-20.36
X9.7Y-30.41
X15.6Y-30.41
X15.7Y-10.3
X15.7Y-20.31
X15.7Y-40.76
X15.7Y-50.86
X17.75Y-59.86
X17.75Y-59.86
X19.0Y-80.16
X20.35Y-69.96
X22.4Y-10.3
X22.4Y-20.36
X22.4Y-30.41
X22.4Y-50.86
X22.4Y-61.06
X30.0Y-9.0
X30.0Y-19.21
X30.0Y-29.36
X30.0Y-39.51
X30.0Y-49.66
X30.0Y-59.86
X30.0Y-69.96
X30.0Y-80.16
T2
X-25.4Y-2.11
X-20.32Y-2.11
X-17.78Y-2.11
X-12.7Y-2.11
X-7.62Y-2.11
X-5.08Y-2.11
X0.0Y-2.11
X5.08Y-2.11
X7.62Y-2.11
X12.7Y-2.11
X17.78Y-2.11
X20.32Y-2.11
X25.4Y-2.11
X30.48Y-2.11
M30
