%TF.GenerationSoftware,KiCad,Pcbnew,8.0.8*%
%TF.CreationDate,2025-01-17T20:21:58+11:00*%
%TF.ProjectId,ti59_keyboard,74693539-5f6b-4657-9962-6f6172642e6b,1*%
%TF.SameCoordinates,Original*%
%TF.FileFunction,Copper,L2,Bot*%
%TF.FilePolarity,Positive*%
%FSLAX46Y46*%
G04 Gerber Fmt 4.6, Leading zero omitted, Abs format (unit mm)*
G04 Created by KiCad (PCBNEW 8.0.8) date 2025-01-17 20:21:58*
%MOMM*%
%LPD*%
G01*
G04 APERTURE LIST*
G04 Aperture macros list*
%AMRoundRect*
0 Rectangle with rounded corners*
0 $1 Rounding radius*
0 $2 $3 $4 $5 $6 $7 $8 $9 X,Y pos of 4 corners*
0 Add a 4 corners polygon primitive as box body*
4,1,4,$2,$3,$4,$5,$6,$7,$8,$9,$2,$3,0*
0 Add four circle primitives for the rounded corners*
1,1,$1+$1,$2,$3*
1,1,$1+$1,$4,$5*
1,1,$1+$1,$6,$7*
1,1,$1+$1,$8,$9*
0 Add four rect primitives between the rounded corners*
20,1,$1+$1,$2,$3,$4,$5,0*
20,1,$1+$1,$4,$5,$6,$7,0*
20,1,$1+$1,$6,$7,$8,$9,0*
20,1,$1+$1,$8,$9,$2,$3,0*%
G04 Aperture macros list end*
%TA.AperFunction,ComponentPad*%
%ADD10RoundRect,0.250000X-0.675000X-0.675000X0.675000X-0.675000X0.675000X0.675000X-0.675000X0.675000X0*%
%TD*%
%TA.AperFunction,ViaPad*%
%ADD11C,0.800000*%
%TD*%
%TA.AperFunction,Conductor*%
%ADD12C,0.500000*%
%TD*%
G04 APERTURE END LIST*
D10*
%TO.P,J12,1,Pin_1*%
%TO.N,/R6*%
X20320000Y-2110000D03*
%TD*%
%TO.P,J4,1,Pin_1*%
%TO.N,/C2*%
X-12700000Y-2110000D03*
%TD*%
%TO.P,J13,1,Pin_1*%
%TO.N,/C5*%
X25400000Y-2110000D03*
%TD*%
%TO.P,J7,1,Pin_1*%
%TO.N,/C3*%
X0Y-2110000D03*
%TD*%
%TO.P,J8,1,Pin_1*%
%TO.N,/R4*%
X5080000Y-2110000D03*
%TD*%
%TO.P,J2,1,Pin_1*%
%TO.N,/R7*%
X-20320000Y-2110000D03*
%TD*%
%TO.P,J10,1,Pin_1*%
%TO.N,/C4*%
X12700000Y-2110000D03*
%TD*%
%TO.P,J3,1,Pin_1*%
%TO.N,/R2*%
X-17780000Y-2110000D03*
%TD*%
%TO.P,J6,1,Pin_1*%
%TO.N,/R1*%
X-5080000Y-2110000D03*
%TD*%
%TO.P,J11,1,Pin_1*%
%TO.N,/R5*%
X17780000Y-2110000D03*
%TD*%
%TO.P,J14,1,Pin_1*%
%TO.N,/R0*%
X30480000Y-2110000D03*
%TD*%
%TO.P,J5,1,Pin_1*%
%TO.N,/R8*%
X-7620000Y-2110000D03*
%TD*%
%TO.P,J9,1,Pin_1*%
%TO.N,/R3*%
X7620000Y-2110000D03*
%TD*%
%TO.P,J1,1,Pin_1*%
%TO.N,/C1*%
X-25400000Y-2110000D03*
%TD*%
D11*
%TO.N,/R7*%
X-30000000Y-80160000D03*
X-9700000Y-81360000D03*
X-3000000Y-81410000D03*
X30000000Y-80160000D03*
X-20300000Y-80160000D03*
X6350000Y-80160000D03*
X19000000Y-80160000D03*
%TO.N,/R2*%
X-3000000Y-30360000D03*
X15600000Y-30410000D03*
X-30000000Y-29360000D03*
X3000000Y-30410000D03*
X22400000Y-30410000D03*
X-9700000Y-30410000D03*
X30000000Y-29360000D03*
X9700000Y-30410000D03*
X-22400000Y-30810000D03*
X-17750000Y-29360000D03*
%TO.N,/R1*%
X-9700000Y-20410000D03*
X-30000000Y-19210000D03*
X-5100000Y-19160000D03*
X-15700000Y-20360000D03*
X9700000Y-20360000D03*
X-22400000Y-20410000D03*
X3000000Y-20410000D03*
X30000000Y-19210000D03*
X22400000Y-20360000D03*
X15700000Y-20310000D03*
%TO.N,/R4*%
X-15700000Y-50860000D03*
X-22400000Y-50910000D03*
X-30000000Y-49660000D03*
X-9700000Y-50860000D03*
X22400000Y-50860000D03*
X30000000Y-49660000D03*
X15700000Y-50860000D03*
X-3000000Y-50860000D03*
X5030000Y-49680000D03*
%TO.N,/R3*%
X3000000Y-40710000D03*
X15700000Y-40760000D03*
X-22400000Y-40760000D03*
X-3000000Y-40710000D03*
X7510000Y-39520000D03*
X-30000000Y-39510000D03*
X30000000Y-39510000D03*
X-15700000Y-40710000D03*
X-9700000Y-40710000D03*
%TO.N,/R5*%
X-15700000Y-61060000D03*
X30000000Y-59860000D03*
X-22400000Y-61060000D03*
X6450000Y-59840000D03*
X17750000Y-59860000D03*
X-3000000Y-61010000D03*
X-30000000Y-59860000D03*
X22400000Y-61060000D03*
X-9700000Y-61060000D03*
%TO.N,/R6*%
X-9700000Y-71260000D03*
X20350000Y-69960000D03*
X6350000Y-70000000D03*
X-30000000Y-69960000D03*
X-15700000Y-71210000D03*
X-22400000Y-71210000D03*
X-3000000Y-71210000D03*
X30000000Y-69960000D03*
%TO.N,/R0*%
X22400000Y-10300000D03*
X-9700000Y-10300000D03*
X-30000000Y-9000000D03*
X-3000000Y-10300000D03*
X-22400000Y-10300000D03*
X30000000Y-9000000D03*
X15700000Y-10300000D03*
X3000000Y-10300000D03*
X9700000Y-10300000D03*
X-15700000Y-10300000D03*
%TD*%
D12*
%TO.N,/R7*%
X-19450000Y-80160000D02*
X30000000Y-80160000D01*
X-19450000Y-80160000D02*
X-30000000Y-80160000D01*
X-3000000Y-81410000D02*
X-3000000Y-80160000D01*
X-9700000Y-81360000D02*
X-9700000Y-80160000D01*
%TO.N,/R2*%
X-22400000Y-29410000D02*
X-22350000Y-29360000D01*
X-9650000Y-29360000D02*
X-2900000Y-29360000D01*
X-22350000Y-29360000D02*
X-17750000Y-29360000D01*
X-9700000Y-30410000D02*
X-9700000Y-29410000D01*
X-17750000Y-29360000D02*
X-9650000Y-29360000D01*
X3000000Y-30410000D02*
X3000000Y-29410000D01*
X-3000000Y-29460000D02*
X-2900000Y-29360000D01*
X9700000Y-30410000D02*
X9700000Y-29360000D01*
X-2900000Y-29360000D02*
X3050000Y-29360000D01*
X22400000Y-30410000D02*
X22400000Y-29360000D01*
X-22400000Y-30810000D02*
X-22400000Y-29410000D01*
X-3000000Y-30360000D02*
X-3000000Y-29460000D01*
X-17780000Y-29330000D02*
X-17750000Y-29360000D01*
X-9700000Y-29410000D02*
X-9650000Y-29360000D01*
X15600000Y-29360000D02*
X30000000Y-29360000D01*
X3000000Y-29410000D02*
X3050000Y-29360000D01*
X3050000Y-29360000D02*
X15600000Y-29360000D01*
X-30000000Y-29360000D02*
X-22350000Y-29360000D01*
X15600000Y-29360000D02*
X15600000Y-30410000D01*
%TO.N,/R1*%
X-15600000Y-19210000D02*
X-9700000Y-19210000D01*
X9700000Y-19310000D02*
X9800000Y-19210000D01*
X22400000Y-19260000D02*
X22350000Y-19210000D01*
X9800000Y-19210000D02*
X15750000Y-19210000D01*
X3000000Y-20410000D02*
X3000000Y-19310000D01*
X15700000Y-20310000D02*
X15700000Y-19260000D01*
X3100000Y-19210000D02*
X9800000Y-19210000D01*
X22400000Y-20360000D02*
X22400000Y-19260000D01*
X-15700000Y-20360000D02*
X-15700000Y-19310000D01*
X-22400000Y-20410000D02*
X-22400000Y-19260000D01*
X15750000Y-19210000D02*
X22350000Y-19210000D01*
X3000000Y-19310000D02*
X3100000Y-19210000D01*
X-22350000Y-19210000D02*
X-15600000Y-19210000D01*
X-15700000Y-19310000D02*
X-15600000Y-19210000D01*
X-9700000Y-20410000D02*
X-9700000Y-19210000D01*
X9700000Y-20360000D02*
X9700000Y-19310000D01*
X22350000Y-19210000D02*
X30000000Y-19210000D01*
X-9700000Y-19210000D02*
X3100000Y-19210000D01*
X15700000Y-19260000D02*
X15750000Y-19210000D01*
X-30000000Y-19210000D02*
X-22350000Y-19210000D01*
X-22400000Y-19260000D02*
X-22350000Y-19210000D01*
%TO.N,/R4*%
X22450000Y-49660000D02*
X30000000Y-49660000D01*
X-15700000Y-49660000D02*
X-9700000Y-49660000D01*
X15700000Y-49710000D02*
X15750000Y-49660000D01*
X-9700000Y-49660000D02*
X-3000000Y-49660000D01*
X-3000000Y-49660000D02*
X15750000Y-49660000D01*
X15750000Y-49660000D02*
X22450000Y-49660000D01*
X-9700000Y-50860000D02*
X-9700000Y-49660000D01*
X15700000Y-50860000D02*
X15700000Y-49710000D01*
X-30000000Y-49660000D02*
X-22400000Y-49660000D01*
X-22400000Y-50910000D02*
X-22400000Y-49660000D01*
X-3000000Y-50860000D02*
X-3000000Y-49660000D01*
X22400000Y-50860000D02*
X22400000Y-49710000D01*
X-15700000Y-50860000D02*
X-15700000Y-49660000D01*
X22400000Y-49710000D02*
X22450000Y-49660000D01*
X-22400000Y-49660000D02*
X-15700000Y-49660000D01*
%TO.N,/R3*%
X15750000Y-39510000D02*
X30000000Y-39510000D01*
X-9700000Y-39610000D02*
X-9600000Y-39510000D01*
X-22400000Y-39560000D02*
X-22450000Y-39510000D01*
X15700000Y-39560000D02*
X15750000Y-39510000D01*
X-15700000Y-39510000D02*
X-9600000Y-39510000D01*
X15700000Y-40760000D02*
X15700000Y-39560000D01*
X-22400000Y-40760000D02*
X-22400000Y-39560000D01*
X7500000Y-39510000D02*
X7510000Y-39520000D01*
X-2950000Y-39510000D02*
X3000000Y-39510000D01*
X3000000Y-40710000D02*
X3000000Y-39510000D01*
X-15700000Y-40710000D02*
X-15700000Y-39510000D01*
X-22450000Y-39510000D02*
X-15700000Y-39510000D01*
X-9700000Y-40710000D02*
X-9700000Y-39610000D01*
X7510000Y-39520000D02*
X7520000Y-39510000D01*
X3000000Y-39510000D02*
X7500000Y-39510000D01*
X-30000000Y-39510000D02*
X-22450000Y-39510000D01*
X7520000Y-39510000D02*
X15750000Y-39510000D01*
X-9600000Y-39510000D02*
X-2950000Y-39510000D01*
X-3000000Y-40710000D02*
X-3000000Y-39560000D01*
X-3000000Y-39560000D02*
X-2950000Y-39510000D01*
%TO.N,/R5*%
X-15700000Y-61060000D02*
X-15700000Y-59910000D01*
X-22350000Y-59860000D02*
X-30000000Y-59860000D01*
X-15750000Y-59860000D02*
X-22350000Y-59860000D01*
X-3000000Y-61010000D02*
X-3000000Y-59860000D01*
X17750000Y-59860000D02*
X22350000Y-59860000D01*
X-9700000Y-59860000D02*
X-15750000Y-59860000D01*
X3000000Y-59860000D02*
X-3000000Y-59860000D01*
X-22400000Y-59910000D02*
X-22350000Y-59860000D01*
X-9700000Y-61060000D02*
X-9700000Y-59860000D01*
X-3000000Y-59860000D02*
X-9700000Y-59860000D01*
X-22400000Y-61060000D02*
X-22400000Y-59910000D01*
X17750000Y-59860000D02*
X3000000Y-59860000D01*
X22400000Y-61060000D02*
X22400000Y-59910000D01*
X22350000Y-59860000D02*
X30000000Y-59860000D01*
X22400000Y-59910000D02*
X22350000Y-59860000D01*
X-15700000Y-59910000D02*
X-15750000Y-59860000D01*
%TO.N,/R6*%
X-3000000Y-71210000D02*
X-3000000Y-69960000D01*
X-22400000Y-71210000D02*
X-22400000Y-69960000D01*
X-15750000Y-69960000D02*
X-22400000Y-69960000D01*
X-9700000Y-71260000D02*
X-9700000Y-70010000D01*
X-9750000Y-69960000D02*
X-15750000Y-69960000D01*
X-15700000Y-70010000D02*
X-15750000Y-69960000D01*
X30000000Y-69960000D02*
X20350000Y-69960000D01*
X-15700000Y-71210000D02*
X-15700000Y-70010000D01*
X20350000Y-69960000D02*
X-3000000Y-69960000D01*
X-9700000Y-70010000D02*
X-9750000Y-69960000D01*
X-3000000Y-69960000D02*
X-9750000Y-69960000D01*
X-22400000Y-69960000D02*
X-30000000Y-69960000D01*
%TO.N,/R0*%
X-15700000Y-9000000D02*
X-9600000Y-9000000D01*
X-22400000Y-10300000D02*
X-22400000Y-9000000D01*
X3000000Y-9100000D02*
X2900000Y-9000000D01*
X-22400000Y-9000000D02*
X-15700000Y-9000000D01*
X-30000000Y-9000000D02*
X-22400000Y-9000000D01*
X-15700000Y-10300000D02*
X-15700000Y-9000000D01*
X9800000Y-9000000D02*
X15800000Y-9000000D01*
X15800000Y-9000000D02*
X22400000Y-9000000D01*
X15700000Y-10300000D02*
X15700000Y-9100000D01*
X-3000000Y-9000000D02*
X2900000Y-9000000D01*
X9700000Y-9100000D02*
X9800000Y-9000000D01*
X-9600000Y-9000000D02*
X-3000000Y-9000000D01*
X22400000Y-10300000D02*
X22400000Y-9000000D01*
X3000000Y-10300000D02*
X3000000Y-9100000D01*
X-3000000Y-10300000D02*
X-3000000Y-9000000D01*
X22400000Y-9000000D02*
X30000000Y-9000000D01*
X2900000Y-9000000D02*
X9800000Y-9000000D01*
X-9700000Y-9100000D02*
X-9600000Y-9000000D01*
X15700000Y-9100000D02*
X15800000Y-9000000D01*
X9700000Y-10300000D02*
X9700000Y-9100000D01*
X-9700000Y-10300000D02*
X-9700000Y-9100000D01*
%TD*%
M02*
